<?xml version="1.0" standalone="no"?>
<!DOCTYPE svg PUBLIC "-//W3C//DTD SVG 1.1//EN" "http://www.w3.org/Graphics/SVG/1.1/DTD/svg11.dtd" >
<svg>
<metadata>
Created by FontForge 20090914 at Sat Jul 16 15:23:12 2016
 By www-data
Copyright (c) 2011-2013, Sol Matas (www.huertatipografica.com.ar), with Reserved Font Name "Bitter".
</metadata>
<defs>
<font id="Bitter-Regular" horiz-adv-x="1259" >
  <font-face 
    font-family="Bitter"
    font-weight="400"
    font-stretch="normal"
    units-per-em="2048"
    panose-1="0 0 5 0 0 0 0 0 0 0"
    ascent="1577"
    descent="-471"
    x-height="1085"
    cap-height="1434"
    bbox="-82 -512 2109 1915"
    underline-thickness="102"
    underline-position="-102"
    unicode-range="U+000D-U+25FC"
  />
<missing-glyph horiz-adv-x="748" 
d="M68 0v1365h544v-1365h-544zM136 68h408v1229h-408v-1229z" />
    <glyph glyph-name=".notdef" horiz-adv-x="748" 
d="M68 0v1365h544v-1365h-544zM136 68h408v1229h-408v-1229z" />
    <glyph glyph-name="glyph1" horiz-adv-x="2048" 
 />
    <glyph glyph-name="glyph1" horiz-adv-x="2048" 
 />
    <glyph glyph-name="uni000D" unicode="&#xd;" horiz-adv-x="471" 
 />
    <glyph glyph-name="space" unicode=" " horiz-adv-x="471" 
 />
    <glyph glyph-name="exclam" unicode="!" horiz-adv-x="655" 
d="M195 123c0 44.667 12.833 79.667 38.5 105s57.167 38 94.5 38c41.333 0 73.833 -12.5 97.5 -37.5s35.5 -60.167 35.5 -105.5c0 -44.667 -12.833 -79.667 -38.5 -105s-57.167 -38 -94.5 -38c-41.333 0 -73.833 12.5 -97.5 37.5s-35.5 60.167 -35.5 105.5zM215 1536h236
l-31 -1024l-174 -10z" />
    <glyph glyph-name="quotedbl" unicode="&#x22;" horiz-adv-x="794" 
d="M133 1065v512h195l-41 -512h-154zM485 1065v512h197l-43 -512h-154z" />
    <glyph glyph-name="numbersign" unicode="#" horiz-adv-x="1413" 
d="M133 348v133h238l39 297h-226v133h244l43 318h164l-43 -318h297l43 318h164l-43 -318h227v-133h-246l-39 -297h234v-133h-252l-45 -348h-164l45 348h-297l-45 -348h-164l45 348h-219zM535 481h296l39 297h-297z" />
    <glyph glyph-name="dollar" unicode="$" horiz-adv-x="1116" 
d="M133 51l0.00292969 328.002h143l41 -189c5.33301 -2.66699 13.333 -6.33398 24 -11.001s32.834 -10.667 66.501 -18s68.5 -11 104.5 -11c50 0 96.167 6.33301 138.5 19s78 33.667 107 63s43.5 64.666 43.5 105.999c0 38 -12.167 71 -36.5 99s-55.833 50.667 -94.5 68
s-81.334 33.833 -128.001 49.5s-93.334 33.5 -140.001 53.5s-89.334 43.167 -128.001 69.5s-70.167 62 -94.5 107s-36.5 97.5 -36.5 157.5c0 103.333 32.5 184.833 97.5 244.5s148.833 96.834 251.5 111.501v238h153v-231c50 -3.33301 102.333 -11.333 157 -24
s96.667 -24.334 126 -35.001l45 -17l-10 -307h-123l-52 184c-61.333 27.333 -126 41 -194 41c-78 0 -138.5 -16.833 -181.5 -50.5s-64.5 -74.834 -64.5 -123.501c0 -30 7.5 -56.833 22.5 -80.5s35.167 -43.667 60.5 -60s54.333 -31.5 87 -45.5s67.167 -27.5 103.5 -40.5
l109 -41c36.333 -14.333 70.833 -31.166 103.5 -50.499s61.667 -41.166 87 -65.499s45.5 -54.333 60.5 -90s22.5 -75.834 22.5 -120.501c0 -108 -33 -194.5 -99 -259.5s-152.667 -107.5 -260 -127.5v-279h-153v267c-58 1.33301 -116.833 7.83301 -176.5 19.5
s-104.834 23.167 -135.501 34.5z" />
    <glyph glyph-name="percent" unicode="%" horiz-adv-x="1669" 
d="M92 1085c0 115.333 31.332 205.666 93.999 270.999s144 98 244 98c96 0 173 -29.5 231 -88.5s87 -145.5 87 -259.5c0 -119.333 -31 -210.666 -93 -273.999s-143.667 -95 -245 -95c-97.333 0 -174.666 28.5 -231.999 85.5s-86 144.5 -86 262.5zM245.999 1096
c0 -150.667 57.998 -226 173.998 -226s174 75.333 174 226c0 70 -14.167 125 -42.5 165s-72.166 60 -131.499 60s-103.166 -20 -131.499 -60s-42.5 -95 -42.5 -165zM316.997 0l830 1434h184l-829 -1434h-185zM900.997 328c0 115.333 31.332 205.5 93.999 270.5
s144 97.5 244 97.5c96 0 172.833 -29.5 230.5 -88.5s86.5 -145.5 86.5 -259.5c0 -119.333 -30.833 -210.5 -92.5 -273.5s-143.167 -94.5 -244.5 -94.5c-97.333 0 -174.666 28.5 -231.999 85.5s-86 144.5 -86 262.5zM1055 338c0 -150 57.998 -225 173.998 -225
s174 75 174 225c0 70 -14.167 125 -42.5 165s-72.166 60 -131.499 60s-103.166 -20 -131.499 -60s-42.5 -95 -42.5 -165z" />
    <glyph glyph-name="ampersand" unicode="&#x26;" horiz-adv-x="1372" 
d="M143 399c0 46 9.49902 90.501 28.499 133.501s42.167 78.667 69.5 107s54.5 53.5 81.5 75.5s50.167 38 69.5 48l28 15c-6.66699 2 -15.334 4.83301 -26.001 8.5s-30 13.5 -58 29.5s-52.667 34.5 -74 55.5s-40.666 50.5 -57.999 88.5s-26 79.667 -26 125
c0 123.333 42 215.666 126 276.999s201 92 351 92c53.333 0 112.5 -6.83301 177.5 -20.5s116.5 -27.5 154.5 -41.5l57 -20l-10 -287h-131l-43 164c-54.667 20.667 -129.667 31 -225 31c-80 0 -141 -18.333 -183 -55s-63 -86.667 -63 -150
c0 -69.333 25.833 -125.833 77.5 -169.5s114.5 -65.5 188.5 -65.5h635v-123l-164 -41v-246c0 -142 -44.667 -252.5 -134 -331.5s-211.666 -118.5 -366.999 -118.5c-162.667 0 -283.667 37.5 -363 112.5s-119 177.167 -119 306.5zM357.999 410.001
c0 -84.667 25.5 -148.5 76.5 -191.5s121.167 -64.5 210.5 -64.5c88 0 156.167 22.833 204.5 68.5s72.5 111.5 72.5 197.5v256h-277c-78.667 0 -146.167 -25.333 -202.5 -76s-84.5 -114 -84.5 -190z" />
    <glyph glyph-name="quotesingle" unicode="'" horiz-adv-x="419" 
d="M113 1065v512h194l-41 -512h-153z" />
    <glyph glyph-name="parenleft" unicode="(" horiz-adv-x="675" 
d="M152 573c0 130.667 13.167 252.833 39.5 366.5s63.333 219.667 111 318s110.834 204.833 189.501 319.5h184c-99.333 -150.667 -177.5 -313.5 -234.5 -488.5s-85.5 -343.167 -85.5 -504.5c0 -178.667 28.167 -364.167 84.5 -556.5s134.166 -358.5 233.499 -498.5h-182
c-119.333 165.333 -205.833 329.833 -259.5 493.5s-80.5 347.167 -80.5 550.5z" />
    <glyph glyph-name="parenright" unicode=")" horiz-adv-x="675" 
d="M-2 1577h183.999c78.667 -114.667 141.834 -221.167 189.501 -319.5s84.667 -204.333 111 -318s39.5 -235.834 39.5 -366.501c0 -203.333 -26.833 -386.833 -80.5 -550.5s-140.167 -328.167 -259.5 -493.5h-182c99.333 140 177 306.167 233 498.5s84 377.833 84 556.5
c0 162 -28.5 330.333 -85.5 505s-134.833 337.334 -233.5 488.001z" />
    <glyph glyph-name="asterisk" unicode="*" horiz-adv-x="825" 
d="M51 1198l49 143l248 -94l27 -65l-62 -35zM143 936l170 211l72 4l14 -70l-133 -231zM322 1501l149 4l-14 -260l-56 -45l-53 47zM399 1081l19 70l69 -8l172 -203l-118 -90zM428 1182l29 63l235 101l51 -144l-256 -59z" />
    <glyph glyph-name="plus" unicode="+" horiz-adv-x="1269" 
d="M102 461v164h447v460h174v-460h444v-164h-444v-461h-174v461h-447z" />
    <glyph glyph-name="comma" unicode="," horiz-adv-x="542" 
d="M82 -238l30 42.001c12 17.333 28 45.5 48 84.5s30 69.5 30 91.5c0 11.333 -7.83301 32.333 -23.5 63s-23.5 59.334 -23.5 86.001c0 39.333 12.333 72 37 98s56.667 39 96 39c40 0 72.333 -11.833 97 -35.5s37 -62.167 37 -115.5
c0 -56.667 -21.167 -122.834 -63.5 -198.501s-99.833 -152.834 -172.5 -231.501z" />
    <glyph glyph-name="hyphen" unicode="-" horiz-adv-x="768" 
d="M123 471v174h532v-174h-532z" />
    <glyph glyph-name="period" unicode="." horiz-adv-x="532" 
d="M133 123c0 44.667 12.833 79.667 38.5 105s57.167 38 94.5 38c41.333 0 73.833 -12.5 97.5 -37.5s35.5 -60.167 35.5 -105.5c0 -44.667 -12.833 -79.667 -38.5 -105s-57.167 -38 -94.5 -38c-41.333 0 -73.833 12.5 -97.5 37.5s-35.5 60.167 -35.5 105.5z" />
    <glyph glyph-name="slash" unicode="/" horiz-adv-x="1036" 
d="M82 0l678 1434h215l-678 -1434h-215z" />
    <glyph glyph-name="zero" unicode="0" horiz-adv-x="1320" 
d="M143 707c0 498 181 746.998 543 746.998c77.333 0 145 -10.333 203 -31s106.5 -50.167 145.5 -88.5s70.667 -87.166 95 -146.499s41.833 -125.666 52.5 -198.999s16 -157.333 16 -252c0 -504.667 -177.333 -757 -532 -757c-180 0 -312.167 61.833 -396.5 185.5
s-126.5 304.167 -126.5 541.5zM369 716.998c0 -188 24.667 -328.833 74 -422.5s127 -140.5 233 -140.5c105.333 0 181.166 47 227.499 141s69.5 238 69.5 432c0 191.333 -22.167 331.333 -66.5 420s-121.166 133 -230.499 133c-110 0 -188.667 -45.333 -236 -136
s-71 -233 -71 -427z" />
    <glyph glyph-name="one" unicode="1" horiz-adv-x="1048" 
d="M41 1120l477 314h172v-1260h307v-174h-837v174h315v1024l-348 -225z" />
    <glyph glyph-name="two" unicode="2" horiz-adv-x="1167" 
d="M92 0v174.001l191.5 173l157.5 147c56 53.333 100.167 97.833 132.5 133.5s64.833 73.667 97.5 114s57.167 76.333 73.5 108s29.5 64 39.5 97s15 65.5 15 97.5c0 72 -24.667 129.333 -74 172s-117 64 -203 64c-33.333 0 -68 -3.33301 -104 -10
s-63.333 -13.334 -82 -20.001l-29 -11l-20 -195h-164l-10 328c16.667 6 39.167 13.5 67.5 22.5s79.5 21.167 153.5 36.5s140 23 198 23c160.667 0 282.834 -30.333 366.501 -91s125.5 -160 125.5 -298c0 -66 -12.333 -131 -37 -195s-65.334 -132.667 -122.001 -206
s-122.667 -147.5 -198 -222.5s-171.333 -164.167 -288 -267.5h686v-174h-973z" />
    <glyph glyph-name="three" unicode="3" horiz-adv-x="1126" 
d="M41 82l61 163.997c13.333 -6.66699 31.333 -15.167 54 -25.5s66.334 -24 131.001 -41s126 -25.5 184 -25.5c94 0 168.667 23 224 69s83 111.667 83 197c0 76.667 -30.5 136.834 -91.5 180.501s-143.167 65.5 -246.5 65.5h-153v163h164c94.667 0 169.5 21 224.5 63
s82.5 103 82.5 183c0 62 -24 111.667 -72 149s-112.667 56 -194 56c-36.667 0 -73.834 -3.33301 -111.501 -10s-66.167 -13.334 -85.5 -20.001l-29 -11l-20 -184h-164l-10 317c16.667 6 39.334 13.5 68.001 22.5s81 21.167 157 36.5s144.333 23 205 23
c70.667 0 134.167 -6.83301 190.5 -20.5s105.666 -34.5 147.999 -62.5s75 -65.167 98 -111.5s34.5 -100.833 34.5 -163.5c0 -88.667 -22.333 -162.334 -67 -221.001s-111 -99 -199 -121c92 -18.667 164.5 -58.667 217.5 -120s79.5 -129.333 79.5 -204
c0 -65.333 -11 -124.166 -33 -176.499s-51 -95.166 -87 -128.499s-78 -61.166 -126 -83.499s-96.5 -38.166 -145.5 -47.499s-99.5 -14 -151.5 -14c-49.333 0 -97.666 3.5 -144.999 10.5s-86.833 15.5 -118.5 25.5s-59.834 20 -84.501 30s-43 18.667 -55 26z" />
    <glyph glyph-name="four" unicode="4" horiz-adv-x="1249" 
d="M41 492l655 972l236 -30v-922h235v-174h-235v-338h-211v338h-660zM266 512h455v676z" />
    <glyph glyph-name="five" unicode="5" horiz-adv-x="1085" 
d="M41 82l60.999 164c12 -6.66699 29 -15.167 51 -25.5s64.333 -24 127 -41s123 -25.5 181 -25.5c82.667 0 152.834 24.167 210.501 72.5s86.5 116.166 86.5 203.499c0 90 -37.333 158.667 -112 206s-177.334 71 -308.001 71h-215l27 727h776l-6 -174h-578l-18 -390h65
c184 0 329 -39.167 435 -117.5s159 -182.5 159 -312.5c0 -59.333 -9.83301 -114.5 -29.5 -165.5s-46.167 -94.167 -79.5 -129.5s-72.166 -65.666 -116.499 -90.999s-90.666 -44 -138.999 -56s-97.5 -18 -147.5 -18c-49.333 0 -98 3.5 -146 10.5s-88.333 15.5 -121 25.5
s-61.834 20 -87.501 30s-44.5 18.667 -56.5 26z" />
    <glyph glyph-name="six" unicode="6" horiz-adv-x="1228" 
d="M123 604c0 124.667 15.6611 238.331 46.9941 340.998s77.333 192 138 268s138.834 135.167 234.501 177.5s204.834 63.5 327.501 63.5c30 0 57.833 -1.66699 83.5 -5s43.834 -6.66602 54.501 -9.99902l16 -5l-10 -164c-41.333 6.66699 -92.666 10 -153.999 10
c-51.333 0 -99.333 -5.66699 -144 -17s-83 -26.666 -115 -45.999s-61.167 -41.666 -87.5 -66.999s-48 -51.833 -65 -79.5s-32 -55.334 -45 -83.001s-22.833 -54.167 -29.5 -79.5s-12.167 -47.666 -16.5 -66.999s-6.83301 -34.666 -7.5 -45.999l-2 -17l17 11
c7.33301 4.66699 22.833 13 46.5 25s48.167 22.5 73.5 31.5s57.333 17.167 96 24.5s77 11 115 11c80 0 153 -16.333 219 -49s119.5 -82.167 160.5 -148.5s61.5 -143.833 61.5 -232.5c0 -92.667 -22.5 -175.334 -67.5 -248.001s-104.667 -128 -179 -166
s-156.166 -57 -245.499 -57c-87.333 0 -164.666 15.667 -231.999 47s-122 75.166 -164 131.499s-73.5 122 -94.5 197s-31.5 157.833 -31.5 248.5zM337.994 552.997c0 -69.333 8.16504 -130.332 24.498 -182.999s39 -94.334 68 -125.001s61.333 -53.5 97 -68.5
s74.834 -22.5 117.501 -22.5c83.333 0 150.333 24.5 201 73.5s76 116.5 76 202.5c0 91.333 -24.667 160.333 -74 207s-120.333 70 -213 70c-48.667 0 -97.667 -7.83301 -147 -23.5s-86.666 -31.167 -111.999 -46.5l-38 -23v-61z" />
    <glyph glyph-name="seven" unicode="7" horiz-adv-x="1028" 
d="M10 1055v379h983v-154l-547 -1280h-235l543 1249h-549l-41 -194h-154z" />
    <glyph glyph-name="eight" unicode="8" horiz-adv-x="1208" 
d="M102 389c0 42.667 8.33105 83.501 24.998 122.501s35.834 71 57.501 96s47.667 48.833 78 71.5s54 38.5 71 47.5s34.167 17.5 51.5 25.5c-76.667 38 -136.167 81.5 -178.5 130.5s-63.5 113.167 -63.5 192.5c0 124.667 43.833 219 131.5 283s207.834 96 360.501 96
c144.667 0 255.834 -33.667 333.501 -101s116.5 -156.666 116.5 -267.999c0 -38.667 -6.83301 -75.167 -20.5 -109.5s-30 -62.833 -49 -85.5s-41.5 -43.334 -67.5 -62.001s-48.833 -32.834 -68.5 -42.501s-39.167 -18.167 -58.5 -25.5c42 -17.333 78.5 -35.5 109.5 -54.5
s60.667 -42.333 89 -70s49.833 -60.5 64.5 -98.5s22 -80.333 22 -127c0 -126 -46.833 -229.167 -140.5 -309.5s-220.834 -120.5 -381.501 -120.5c-154 0 -272.833 37.667 -356.5 113s-125.5 174 -125.5 296zM327.998 399.001c0 -76.667 24.1719 -136.333 72.5049 -179
s116.166 -64 203.499 -64s155.333 21.333 204 64s73 102.334 73 179.001c0 21.333 -3.33301 41.666 -10 60.999s-14.334 36 -23.001 50s-22.334 28.333 -41.001 43s-34.667 26.5 -48 35.5s-33.833 19.833 -61.5 32.5l-63.5 28.5
c-14.667 6.33301 -38.334 15.833 -71.001 28.5c-14.667 -7.33301 -24.834 -12.166 -30.501 -14.499s-18.5 -9.33301 -38.5 -21s-35.5 -21.834 -46.5 -30.501s-25.167 -21.167 -42.5 -37.5s-30.833 -32.5 -40.5 -48.5s-18.167 -35.167 -25.5 -57.5s-11 -45.5 -11 -69.5z
M358.003 1075c0 -28.667 5.83398 -54.8311 17.501 -78.498s25.5 -43.5 41.5 -59.5s38.5 -31.833 67.5 -47.5s54.667 -28 77 -37s52.166 -20.167 89.499 -33.5c16 6 32.333 13.167 49 21.5s35.667 20.166 57 35.499s40 31.833 56 49.5s29.5 39.667 40.5 66
s16.5 54.166 16.5 83.499c0 62.667 -22.5 112.5 -67.5 149.5s-107.833 55.5 -188.5 55.5s-143.5 -18.5 -188.5 -55.5s-67.5 -86.833 -67.5 -149.5z" />
    <glyph glyph-name="nine" unicode="9" horiz-adv-x="1228" 
d="M92 983c0 72 13.168 137.995 39.501 197.995s62 109.667 107 149s97.167 69.833 156.5 91.5s122.333 32.5 189 32.5c87.333 0 164.666 -15.667 231.999 -47s122 -75.166 164 -131.499s73.5 -122.166 94.5 -197.499s31.5 -158.333 31.5 -249
c0 -124.667 -15.167 -238.167 -45.5 -340.5s-75.166 -191.666 -134.499 -267.999s-136.333 -135.5 -231 -177.5s-203.334 -63 -326.001 -63c-30 0 -58.667 1.66699 -86 5s-47 6.66602 -59 9.99902l-19 5l10 164c48 -6.66699 102.667 -10 164 -10
c52.667 0 101.5 5.83301 146.5 17.5s83.5 27.334 115.5 47.001s61 42.334 87 68.001s47 52.667 63 81s30.167 56.666 42.5 84.999s21.333 55.333 27 81s10.167 48.334 13.5 68.001s5.33301 35.167 6 46.5l1 18l-17 -11c-7.33301 -4.66699 -23 -13 -47 -25
s-48.667 -22.5 -74 -31.5s-57.333 -17.167 -96 -24.5s-77 -11 -115 -11c-80.667 0 -153.667 15.5 -219 46.5s-118.5 78.833 -159.5 143.5s-61.5 141.334 -61.5 230.001zM307.001 1004c0 -178 95.668 -266.999 287.001 -266.999c48.667 0 97.667 7.66699 147 23
s86.666 30.666 111.999 45.999l38 23v62c0 130 -29 227.333 -87 292s-131.333 97 -220 97c-83.333 0 -150.333 -24.5 -201 -73.5s-76 -116.5 -76 -202.5z" />
    <glyph glyph-name="colon" unicode=":" horiz-adv-x="573" 
d="M154 123c0 44.667 12.667 79.667 38 105s57 38 95 38c41.333 0 73.833 -12.5 97.5 -37.5s35.5 -60.167 35.5 -105.5c0 -44.667 -12.667 -79.667 -38 -105s-57 -38 -95 -38c-41.333 0 -73.833 12.5 -97.5 37.5s-35.5 60.167 -35.5 105.5zM154 788
c0 44.667 12.833 79.832 38.5 105.499s57.167 38.5 94.5 38.5c41.333 0 73.833 -12.667 97.5 -38s35.5 -60.666 35.5 -105.999c0 -44 -12.667 -78.833 -38 -104.5s-57 -38.5 -95 -38.5c-41.333 0 -73.833 12.5 -97.5 37.5s-35.5 60.167 -35.5 105.5z" />
    <glyph glyph-name="semicolon" unicode=";" horiz-adv-x="573" 
d="M92 -238l92 -77.002c72.667 78.667 130.167 155.834 172.5 231.501s63.5 141.834 63.5 198.501c0 100.667 -44.333 151 -133 151c-39.333 0 -71.333 -13 -96 -39s-37 -58.667 -37 -98c0 -26.667 7.83301 -55.334 23.5 -86.001s23.5 -51.667 23.5 -63
c0 -22 -9.16699 -51.167 -27.5 -87.5s-36.5 -67.166 -54.5 -92.499zM152 787.998c0 44.667 12.833 79.832 38.5 105.499s57.167 38.5 94.5 38.5c41.333 0 73.833 -12.667 97.5 -38s35.5 -60.666 35.5 -105.999c0 -44 -12.667 -78.833 -38 -104.5s-57 -38.5 -95 -38.5
c-41.333 0 -73.833 12.5 -97.5 37.5s-35.5 60.167 -35.5 105.5z" />
    <glyph glyph-name="less" unicode="&#x3c;" horiz-adv-x="1249" 
d="M102 471v143l1045 471v-174l-819 -368l819 -379v-174z" />
    <glyph glyph-name="equal" unicode="=" horiz-adv-x="1228" 
d="M113 276v164h1003v-164h-1003zM113 676v164h1003v-164h-1003z" />
    <glyph glyph-name="greater" unicode="&#x3e;" horiz-adv-x="1249" 
d="M102 -10v174l820 379l-820 368v174l1045 -471v-143z" />
    <glyph glyph-name="question" unicode="?" horiz-adv-x="985" 
d="M174 1479c90 31.333 175.999 46.998 257.999 46.998c45.333 0 87.5 -3 126.5 -9s77 -16.667 114 -32s68.333 -34.833 94 -58.5s46.334 -54.167 62.001 -91.5s23.5 -79.666 23.5 -126.999c0 -48 -9.33301 -94.167 -28 -138.5s-42 -82.333 -70 -114
s-58.5 -63.5 -91.5 -95.5l-91.5 -85.5c-28 -25 -51.333 -52.333 -70 -82s-28 -58.5 -28 -86.5l4 -127l-184 -12c-12.667 93.333 -19 160.333 -19 201c0 32.667 12.5 65.834 37.5 99.501s55.167 65.667 90.5 96l106.5 93.5c35.667 32 66 68 91 108s37.5 81 37.5 123
c0 56 -17.833 97.333 -53.5 124s-89.5 40 -161.5 40c-30 0 -63 -2.33301 -99 -7s-64.333 -9 -85 -13l-31 -7zM267.999 122.998c0 44.667 12.667 79.667 38 105s57 38 95 38c41.333 0 74 -12.5 98 -37.5s36 -60.167 36 -105.5c0 -44 -12.833 -78.833 -38.5 -104.5
s-57.5 -38.5 -95.5 -38.5c-41.333 0 -73.833 12.5 -97.5 37.5s-35.5 60.167 -35.5 105.5z" />
    <glyph glyph-name="at" unicode="@" horiz-adv-x="1679" 
d="M133 707c0 225.333 66.3301 406.171 198.997 542.504s308.667 204.5 528 204.5c214 0 383.5 -64.333 508.5 -193s187.5 -303.334 187.5 -524.001c0 -129.333 -31 -231.666 -93 -306.999s-146.333 -113 -253 -113c-34.667 0 -66 4.66699 -94 14s-49.667 20.666 -65 33.999
s-28.166 26.666 -38.499 39.999s-17.166 24.666 -20.499 33.999l-5 14l-13.5 -13.5c-5.66699 -5.66699 -17.334 -15.834 -35.001 -30.501s-35.5 -27.667 -53.5 -39s-39.833 -21.5 -65.5 -30.5s-50.5 -13.5 -74.5 -13.5c-74 0 -130.333 19.5 -169 58.5s-58 95.833 -58 170.5
c0 76.667 27.167 133.667 81.5 171s137.833 56 250.5 56h111v99c0 74.667 -46.667 112 -140 112c-23.333 0 -52.333 -3.5 -87 -10.5s-63.667 -13.833 -87 -20.5l-35 -10l-37 117c11.333 4.66699 26.833 10.5 46.5 17.5s54.834 16.5 105.501 28.5s95.667 18 135 18
c88.667 0 154.5 -19.333 197.5 -58s64.5 -98 64.5 -178v-367c0 -28 8.66699 -50 26 -66s41 -24 71 -24c53.333 0 95.333 25.667 126 77s46 121.333 46 210c0 176 -49 315.5 -147 418.5s-230 154.5 -396 154.5c-171.333 0 -306.333 -52 -405 -156s-148 -246.333 -148 -427
c0 -184.667 44.833 -328.167 134.5 -430.5s215.5 -153.5 377.5 -153.5c39.333 0 79.5 4.16699 120.5 12.5s72.167 16.833 93.5 25.5l32 13l82 -123l-14.5 -8.5c-6.33301 -3.66699 -20.666 -10.167 -42.999 -19.5s-45.666 -17.5 -69.999 -24.5s-55.5 -13.5 -93.5 -19.5
s-77 -9 -117 -9c-214.667 0 -379.334 62.5 -494.001 187.5s-172 304.833 -172 539.5zM677.997 555.005c0 -28.667 9.50098 -51.499 28.501 -68.499s44.833 -25.5 77.5 -25.5c28.667 0 57.667 7.66699 87 23s51.666 30.666 66.999 45.999l23 23v119h-99
c-66.667 0 -114 -9 -142 -27s-42 -48 -42 -90z" />
    <glyph glyph-name="A" unicode="A" horiz-adv-x="1484" 
d="M10 0v123l168 39l467 1261l205 11l455 -1272l170 -39v-123h-594v123l190 39l-78 227h-532l-80 -227l192 -39v-123h-563zM516 553h422l-207 616z" />
    <glyph glyph-name="B" unicode="B" horiz-adv-x="1290" 
d="M82 0l0.000976562 123l174 41v1106l-174 41v112l379 11h235c134 0 241 -30.167 321 -90.5s120 -149.833 120 -268.5c0 -176.667 -89 -287.334 -267 -332.001c106 -24 185.5 -64.667 238.5 -122s79.5 -127.666 79.5 -210.999c0 -140.667 -43.833 -244.167 -131.5 -310.5
s-217.834 -99.5 -390.501 -99.5h-584zM461.001 164h215.001c97.333 0 171.166 19.833 221.499 59.5s75.5 98.167 75.5 175.5c0 98 -30 167 -90 207s-149.667 60 -269 60h-153v-502zM461.002 819h153c96 0 171.333 19.5 226 58.5s82 98.167 82 177.5
c0 68.667 -22 121.667 -66 159s-100.667 56 -170 56h-225v-451z" />
    <glyph glyph-name="C" unicode="C" horiz-adv-x="1361" 
d="M123 686c0 235.333 61.833 422.168 185.5 560.501s290.5 207.5 500.5 207.5c66.667 0 138.334 -8.5 215.001 -25.5s136.667 -33.833 180 -50.5l66 -26l-10 -348h-154l-55 235c-72.667 27.333 -160.334 41 -263.001 41c-138.667 0 -245 -50.167 -319 -150.5
s-111 -244.833 -111 -433.5c0 -177.333 39.833 -310.333 119.5 -399s186.834 -133 321.501 -133c40 0 81.5 5.66699 124.5 17s80.667 25 113 41s61.833 32 88.5 48s47 29.667 61 41l22 17l82 -133c-5.33301 -6 -13.333 -13.833 -24 -23.5s-33.334 -26.834 -68.001 -51.501
s-70.5 -46.5 -107.5 -65.5s-84 -36.167 -141 -51.5s-114.167 -23 -171.5 -23c-207.333 0 -368.333 60.667 -483 182s-172 296 -172 524z" />
    <glyph glyph-name="D" unicode="D" horiz-adv-x="1495" 
d="M92 0l-0.000976562 123l174 41v1106l-174 41v112l389 11h256c202 0 360 -60.333 474 -181s171 -292.667 171 -516c0 -225.333 -61.167 -404.5 -183.5 -537.5s-286.166 -199.5 -491.499 -199.5h-615zM480.999 164h236.001c133.333 0 238.333 46.833 315 140.5
s115 234.5 115 422.5c0 184 -36.833 320.5 -110.5 409.5s-176.834 133.5 -309.501 133.5h-246v-1106z" />
    <glyph glyph-name="E" unicode="E" 
d="M102 0v123l174 41v1106l-174 41v112l390 11h624v-349h-133l-51 185h-440v-441h471v-163h-471v-502h471l41 205h133v-369h-1035z" />
    <glyph glyph-name="F" unicode="F" horiz-adv-x="1167" 
d="M82 0v123l174 41v1106l-174 41v112l389 11h625v-338h-133l-52 174h-440v-461h471v-164h-471v-481l205 -41v-123h-594z" />
    <glyph glyph-name="G" unicode="G" horiz-adv-x="1536" 
d="M123 686c0 235.333 61.8311 422.166 185.498 560.499s290.5 207.5 500.5 207.5c66.667 0 138.334 -8.5 215.001 -25.5s136.667 -33.833 180 -50.5l66 -26l-10 -338h-134l-61 225c-82 27.333 -174.333 41 -277 41c-138.667 0 -245 -50.167 -319 -150.5
s-111 -244.833 -111 -433.5c0 -178.667 40.667 -313.667 122 -405s191 -137 329 -137c42.667 0 87.834 4.33301 135.501 13s84.834 17 111.501 25l40 13v336l-174 41v112l532 11v-123l-154 -41v-439c-6 -3.33301 -14.5 -7.66602 -25.5 -12.999s-34.5 -15 -70.5 -29
s-73 -26.5 -111 -37.5s-85.833 -20.833 -143.5 -29.5s-114.834 -13 -171.501 -13c-207.333 0 -368.333 60.667 -483 182s-172 296 -172 524z" />
    <glyph glyph-name="H" unicode="H" horiz-adv-x="1628" 
d="M82 0v123l174 41v1106l-174 41v112l584 11v-123l-195 -41v-451h686v451l-194 41v112l583 11v-123l-174 -41v-1106l174 -41v-123h-583v123l194 41v491h-686v-491l195 -41v-123h-584z" />
    <glyph glyph-name="I" unicode="I" horiz-adv-x="747" 
d="M92 0v123l174 41v1106l-174 41v112l563 11v-123l-174 -41v-1106l174 -41v-123h-563z" />
    <glyph glyph-name="J" unicode="J" horiz-adv-x="735" 
d="M-41 -297l18.001 154h103c64.667 0 111.5 16.333 140.5 49s43.5 81 43.5 145v1219l-174 41v112l563 11v-123l-174 -41v-1178c0 -124 -34.333 -221.5 -103 -292.5s-164 -106.5 -286 -106.5c-15.333 0 -33.833 0.833008 -55.5 2.5s-39.834 3.16699 -54.501 4.5z" />
    <glyph glyph-name="K" unicode="K" horiz-adv-x="1413" 
d="M92 0v123l174 41v1106l-174 41v112l584 11v-123l-195 -41v-451h189l354 604l338 11v-123l-203 -41l-311 -518l422 -588l174 -41v-123h-584v123l174 41l-352 491h-201v-491l195 -41v-123h-584z" />
    <glyph glyph-name="L" unicode="L" horiz-adv-x="1085" 
d="M72 0v123l174 41v1106l-174 41v112l563 11v-123l-174 -41v-1106h420l41 235h143v-399h-993z" />
    <glyph glyph-name="M" unicode="M" horiz-adv-x="1812" 
d="M82 0v123l174 41v1106l-174 41v112l461 11l370 -820l387 809l431 11v-123l-175 -41v-1106l175 -41v-123h-574v123l195 41v1024l-62 -154l-317 -645l-164 -10l-317 665l-52 144v-1024l195 -41v-123h-553z" />
    <glyph glyph-name="N" unicode="N" horiz-adv-x="1617" 
d="M82 0v123l174 41v1106l-174 41v112l430 11l676 -1145v981l-174 41v112l532 11v-123l-174 -41v-1270h-256l-676 1128v-964l195 -41v-123h-553z" />
    <glyph glyph-name="O" unicode="O" horiz-adv-x="1546" 
d="M123 707c0 226.667 59.834 407.832 179.501 543.499s281.5 203.5 485.5 203.5c198.667 0 354.167 -64.167 466.5 -192.5s168.5 -303.166 168.5 -524.499c0 -111.333 -16.5 -214 -49.5 -308s-79 -174 -138 -240s-130.333 -117.333 -214 -154s-174.834 -55 -273.501 -55
c-200 0 -354.167 62.5 -462.5 187.5s-162.5 304.833 -162.5 539.5zM358.001 716.998c0 -185.333 33.5 -325.5 100.5 -420.5s166.833 -142.5 299.5 -142.5c136 0 241.667 48 317 144s113 239 113 429c0 183.333 -34.833 321.333 -104.5 414s-171.5 139 -305.5 139
c-136 0 -240 -46.167 -312 -138.5s-108 -233.833 -108 -424.5z" />
    <glyph glyph-name="P" unicode="P" horiz-adv-x="1208" 
d="M82 0l0.000976562 123l174 41v1106l-174 41v112l389 11h215c151.333 0 267.666 -37.5 348.999 -112.5s122 -177.5 122 -307.5c0 -156.667 -48.167 -276.167 -144.5 -358.5s-232.5 -123.5 -408.5 -123.5h-133v-368l174 -41v-123h-563zM471.001 696h133
c111.333 0 195.5 24.667 252.5 74s85.5 120.333 85.5 213c0 84.667 -23.167 153.667 -69.5 207s-111.833 80 -196.5 80h-205v-574z" />
    <glyph glyph-name="Q" unicode="Q" horiz-adv-x="1515" 
d="M123 707c0 224.667 63.001 405.335 189.001 542.002s291.667 205 497 205c202.667 0 359.167 -63.833 469.5 -191.5s165.5 -302.834 165.5 -525.501c0 -184 -41.667 -340.333 -125 -469s-197.333 -214.667 -342 -258l221 -133c93.333 -54.667 165 -82 215 -82
c21.333 0 48.166 6 80.499 18s59.5 24 81.5 36l33 18l82 -123c-15.333 -9.33301 -35.333 -20.833 -60 -34.5s-65.5 -31.834 -122.5 -54.501s-102.167 -34 -135.5 -34c-25.333 0 -56 7.16699 -92 21.5s-63.333 26.833 -82 37.5l-92 54l-408 250
c-184.667 13.333 -326.667 82 -426 206s-149 296.333 -149 517zM348.001 717.001c0 -181.333 36.167 -320.501 108.5 -417.501s179.5 -145.5 321.5 -145.5c144 0 253.5 48.333 328.5 145s112.5 239.334 112.5 428.001c0 368.667 -140 553 -420 553
c-145.333 0 -256.833 -47.167 -334.5 -141.5s-116.5 -234.833 -116.5 -421.5z" />
    <glyph glyph-name="R" unicode="R" horiz-adv-x="1331" 
d="M82 0v123.001l174 41v1106l-174 41v112l389 11h225c144 0 256.833 -32.833 338.5 -98.5s122.5 -155.834 122.5 -270.501c0 -199.333 -88.667 -332.333 -266 -399c32.667 -28.667 73.667 -90.334 123 -185.001l162 -325l145 -33v-123h-307l-174 379
c-48 102.667 -89.333 169.334 -124 200.001s-85.667 46 -153 46h-92v-461l174 -41v-123h-563zM471 778.001h154c100.667 0 178.667 22.333 234 67s83 107.667 83 189c0 68.667 -24 125.167 -72 169.5s-109.333 66.5 -184 66.5h-215v-492z" />
    <glyph glyph-name="S" unicode="S" horiz-adv-x="1222" 
d="M143 61l-0.00390625 359.003h164l41 -215c6.66699 -4 16.334 -8.83301 29.001 -14.5s38.667 -13.167 78 -22.5s78.666 -14 117.999 -14c52 0 101.333 7.83301 148 23.5s86 40.667 118 75s48 74.5 48 120.5c0 33.333 -8.5 63.166 -25.5 89.499s-39.667 48.5 -68 66.5
s-61 34.667 -98 50s-76 30 -117 44s-82 29 -123 45s-80 35.167 -117 57.5s-69.667 47.5 -98 75.5s-51 63 -68 105s-25.5 89 -25.5 141c0 69.333 13.167 130.666 39.5 183.999s62.333 95.833 108 127.5s97 55.5 154 71.5s118.5 24 184.5 24c58 0 123 -6.83301 195 -20.5
s129.333 -27.5 172 -41.5l65 -20l-10 -348h-133l-70 219c-69.333 24.667 -141.666 37 -216.999 37c-87.333 0 -154.666 -19.333 -201.999 -58s-71 -85.667 -71 -141c0 -33.333 8.33301 -63 25 -89s39.334 -48 68.001 -66s61.5 -34.667 98.5 -50s75.833 -30 116.5 -44
l122 -44c40.667 -15.333 79.5 -33.666 116.5 -54.999s69.833 -45.333 98.5 -72s51.334 -59.834 68.001 -99.501s25 -84.167 25 -133.5c0 -74.667 -14.333 -141 -43 -199s-67.834 -104.833 -117.501 -140.5s-106.167 -62.667 -169.5 -81s-131.666 -27.5 -204.999 -27.5
c-64 0 -131.167 6.66699 -201.5 20s-124.833 26.666 -163.5 39.999z" />
    <glyph glyph-name="T" unicode="T" horiz-adv-x="1157" 
d="M20 1065v369h1117v-369h-133l-52 205h-266v-1106l205 -41v-123h-625v123l205 41v1106h-266l-51 -205h-134z" />
    <glyph glyph-name="U" unicode="U" horiz-adv-x="1617" 
d="M82 1311l0.00292969 112.004l584 11v-123l-195 -41v-717c0 -102 12.167 -182.167 36.5 -240.5s60.333 -99.333 108 -123s112.167 -35.5 193.5 -35.5c127.333 0 215.5 31.833 264.5 95.5s73.5 175.167 73.5 334.5v686l-195 41v112l584 11v-123l-174 -41v-686
c0 -98.667 -9.33301 -183.834 -28 -255.501s-49.334 -134.334 -92.001 -188.001s-100.834 -93.834 -174.501 -120.501s-163.167 -40 -268.5 -40c-194.667 0 -333.834 46.667 -417.501 140s-125.5 237.666 -125.5 432.999v717z" />
    <glyph glyph-name="V" unicode="V" horiz-adv-x="1433" 
d="M10 1311v112l574 11v-123l-187 -39l322 -996l342 994l-191 41v112l553 11v-123l-159 -41l-455 -1270h-205l-436 1270z" />
    <glyph glyph-name="W" unicode="W" horiz-adv-x="2119" 
d="M10 1311v112l574 11v-123l-178 -41l219 -928l338 1081l194 11l332 -1115l254 951l-187 41v112l553 11v-123l-161 -41l-361 -1270h-225l-246 942l-59 221l-64 -231l-276 -932h-205l-342 1270z" />
    <glyph glyph-name="X" unicode="X" horiz-adv-x="1433" 
d="M20 0v123l134 31l430 573l-379 543l-154 41v112l543 11v-123l-133 -41l266 -389l266 389l-143 41v112l543 11v-123l-185 -41l-368 -533l399 -573l174 -41v-123h-553v123l123 31l-287 419l-307 -409l174 -41v-123h-543z" />
    <glyph glyph-name="Y" unicode="Y" horiz-adv-x="1320" 
d="M20 1311v112l512 11v-123l-139 -41l273 -574l301 574l-158 41v112l491 11v-123l-126 -37l-406 -739v-371l174 -41v-123h-563v123l174 41v366l-395 742z" />
    <glyph glyph-name="Z" unicode="Z" 
d="M82 0v143l819 1127h-573l-52 -205h-133v369h1035v-144l-820 -1126h635l41 205h133v-369h-1085z" />
    <glyph glyph-name="bracketleft" unicode="[" horiz-adv-x="706" 
d="M184 -471v2048l441 -10v-133l-246 -23v-1716l246 -23v-133z" />
    <glyph glyph-name="backslash" unicode="\" horiz-adv-x="1036" 
d="M61 1434h215l678 -1434h-215z" />
    <glyph glyph-name="bracketright" unicode="]" horiz-adv-x="706" 
d="M82 -328l246 23v1716l-246 23v133l440 10v-2048l-440 10v133z" />
    <glyph glyph-name="asciicircum" unicode="^" horiz-adv-x="1167" 
d="M123 655l389 779h143l389 -779h-178l-288 574l-281 -574h-174z" />
    <glyph glyph-name="underscore" unicode="_" horiz-adv-x="1024" 
d="M-4 -164h1032v-143h-1032v143z" />
    <glyph glyph-name="grave" unicode="`" horiz-adv-x="501" 
d="M0 1485l102 153l400 -317l-72 -102z" />
    <glyph glyph-name="a" unicode="a" horiz-adv-x="1157" 
d="M92 287c0 112.667 40.501 193.666 121.501 242.999s197.5 74 349.5 74h164v164c0 60.667 -16.833 106.5 -50.5 137.5s-81.834 46.5 -144.501 46.5c-36.667 0 -72.167 -2.5 -106.5 -7.5s-59.5 -9.83301 -75.5 -14.5l-24 -8l-29 -154h-133l-10 256
c16.667 6 39.167 13.5 67.5 22.5s77.833 21.167 148.5 36.5s131.667 23 183 23c124.667 0 219 -24.667 283 -74s96 -130.666 96 -243.999v-624l164 -41v-113l-318 -10l-43 143c-44 -44 -95 -82.167 -153 -114.5s-119 -48.5 -183 -48.5
c-97.333 0 -172.833 26.833 -226.5 80.5s-80.5 129.167 -80.5 226.5zM301.001 296.999c0 -46 13.499 -83.167 40.499 -111.5s63.5 -42.5 109.5 -42.5c28.667 0 57.834 5.66699 87.501 17s55.334 25 77.001 41s41.167 32 58.5 48s30.666 29.667 39.999 41l13 17v164h-143
c-102 0 -174.667 -13.5 -218 -40.5s-65 -71.5 -65 -133.5z" />
    <glyph glyph-name="b" unicode="b" horiz-adv-x="1208" 
d="M10 1454v112.999l369 10v-590c102 79.333 204.333 119 307 119c143.333 0 250.833 -47.5 322.5 -142.5s107.5 -225.167 107.5 -390.5c0 -117.333 -21 -220.166 -63 -308.499s-105.833 -157.833 -191.5 -208.5s-188.5 -76 -308.5 -76
c-66.667 0 -131.5 4.16699 -194.5 12.5s-109.5 16.833 -139.5 25.5l-45 13v1382zM379 163.999c35.333 -14 103.672 -21.001 205.005 -21.001c57.333 0 107.166 10.667 149.499 32s75.333 51.166 99 89.499s41 81.333 52 129s16.5 100.834 16.5 159.501
c0 119.333 -20.667 214 -62 284s-106 105 -194 105c-34.667 0 -67.334 -4.5 -98.001 -13.5s-55.834 -20 -75.501 -33s-36.834 -26.167 -51.501 -39.5s-25.334 -24.666 -32.001 -33.999l-9 -13v-645z" />
    <glyph glyph-name="c" unicode="c" horiz-adv-x="1044" 
d="M82 543c0 166 48.165 301.333 144.498 406s225.5 157 387.5 157c54.667 0 111 -6.83301 169 -20.5s102.333 -27.5 133 -41.5l47 -20l-11 -276h-133l-31 174c-54.667 13.333 -116 20 -184 20c-99.333 0 -175.333 -31.667 -228 -95s-79 -158 -79 -284
c0 -136 28 -240 84 -312s133.667 -108 233 -108c36.667 0 72.5 4.16699 107.5 12.5s64.667 18.5 89 30.5s46 24.167 65 36.5s33.167 22.833 42.5 31.5l14 12l72 -123l-21.5 -18c-9 -7.33301 -28.167 -20.333 -57.5 -39s-59.166 -35.167 -89.499 -49.5
s-67.666 -27.333 -111.999 -39s-87.5 -17.5 -129.5 -17.5c-166.667 0 -293.667 49.667 -381 149s-131 237.333 -131 414z" />
    <glyph glyph-name="d" unicode="d" 
d="M92 512c0 88 11.1631 168 33.4961 240s55.333 134.5 99 187.5s100.334 94 170.001 123s149.834 43.5 240.501 43.5c64.667 0 129.334 -11 194.001 -33v340l-174 41v113l379 10v-1413l174 -41v-113l-348 -10l-16 117c-91.333 -91.333 -198.666 -137 -321.999 -137
c-143.333 0 -250.833 47.5 -322.5 142.5s-107.5 224.833 -107.5 389.5zM306.996 532c0 -119.333 20.667 -213.999 62 -283.999s106 -105 194 -105c32.667 0 64 5.33301 94 16s55 23.5 75 38.5s37.667 30 53 45s26.333 27.833 33 38.5l11 16v604
c-5.33301 3.33301 -13.333 7.16602 -24 11.499s-34.5 10.333 -71.5 18s-76.833 11.5 -119.5 11.5c-204.667 0 -307 -136.667 -307 -410z" />
    <glyph glyph-name="e" unicode="e" horiz-adv-x="1105" 
d="M82 532c0 108.667 21 206.499 63 293.499s101.333 155.5 178 205.5s163.667 75 261 75c286.667 0 430 -160.333 430 -481c0 -15.333 -0.833008 -32 -2.5 -50s-3.5 -33 -5.5 -45l-2 -18h-707c0 -112 27.333 -201.5 82 -268.5s126.334 -100.5 215.001 -100.5
c60.667 0 119.667 9.5 177 28.5s99.666 37.833 126.999 56.5l40 28l72 -106l-22 -18.5c-9.33301 -7.66699 -29.5 -21.167 -60.5 -40.5s-62.5 -36.5 -94.5 -51.5s-71.833 -28.667 -119.5 -41s-94.5 -18.5 -140.5 -18.5c-160.667 0 -282.667 48.833 -366 146.5
s-125 232.834 -125 405.501zM305 665.999h492c0 84 -18 151.667 -54 203s-92.667 77 -170 77c-78.667 0 -141.5 -26.333 -188.5 -79s-73.5 -119.667 -79.5 -201z" />
    <glyph glyph-name="f" unicode="f" horiz-adv-x="849" 
d="M92 922l0.000976562 132.999l184 20v123c0 124.667 32.833 222.334 98.5 293.001s159.167 106 280.5 106c36.667 0 72.167 -2.5 106.5 -7.5s63.166 -10.833 86.499 -17.5s44 -13.5 62 -20.5s31.333 -12.833 40 -17.5l13 -8v-256h-144l-31 164
c-33.333 6.66699 -74 10 -122 10c-68 0 -115.833 -17.667 -143.5 -53s-41.5 -86 -41.5 -152v-164h271l-7 -153h-264v-758l205 -51v-113h-584v113l174 51v758h-184z" />
    <glyph glyph-name="g" unicode="g" horiz-adv-x="1198" 
d="M92 -215c0 34.667 7.33301 66.998 22 96.998s32.667 54.333 54 73s42.5 34.834 63.5 48.501s38.833 23.167 53.5 28.5l22 9c-3.33301 0 -7.83301 0.5 -13.5 1.5s-15.5 4 -29.5 9s-26.333 11.333 -37 19s-20.5 19.167 -29.5 34.5s-13.5 33 -13.5 53
s8.83301 49.333 26.5 88s35.5 72 53.5 100l27 43c-4 2 -9.66699 5.16699 -17 9.5s-20 15 -38 32s-34 36.333 -48 58s-26.667 52 -38 91s-17 81.5 -17 127.5c0 129.333 40.833 228.166 122.5 296.499s191.167 102.5 328.5 102.5c39.333 0 76 -3.33301 110 -10
s58 -13.334 72 -20.001l22 -9l359 8v-112l-199 -29c4 -5.33301 9.16699 -13.333 15.5 -24s14.666 -34 24.999 -70s15.5 -73.667 15.5 -113c0 -133.333 -40.5 -233.166 -121.5 -299.499s-190.833 -99.5 -329.5 -99.5c-27.333 0 -53.833 1.5 -79.5 4.5
s-44.5 6.16699 -56.5 9.5l-18 4l-10 -192h318c133.333 0 234.833 -25.167 304.5 -75.5s104.5 -124.166 104.5 -221.499c0 -115.333 -45 -205.666 -135 -270.999s-222.333 -98 -397 -98c-59.333 0 -113.166 3 -161.499 9s-93.333 16.167 -135 30.5s-76.667 32.833 -105 55.5
s-50.5 51 -66.5 85s-24 73 -24 117zM297 -184.002c0 -34.667 7.00098 -63.6689 21.001 -87.002s35.667 -41.166 65 -53.499s62.166 -21 98.499 -26s80.5 -7.5 132.5 -7.5c103.333 0 180.5 15.833 231.5 47.5s76.5 80.5 76.5 146.5c0 62.667 -22.167 105.667 -66.5 129
s-111.166 35 -200.499 35h-225c-3.33301 -1.33301 -8 -3.66602 -14 -6.99902s-16.667 -10.833 -32 -22.5s-28.833 -24 -40.5 -37s-22.334 -30.167 -32.001 -51.5s-14.5 -43.333 -14.5 -66zM338.001 716.996c0 -74.667 19 -134.334 57 -179.001s94 -67 168 -67
c82.667 0 142.667 19.333 180 58s56 101.334 56 188.001c0 78.667 -18.833 139.334 -56.5 182.001s-94.167 64 -169.5 64c-81.333 0 -140.833 -20.333 -178.5 -61s-56.5 -102.334 -56.5 -185.001z" />
    <glyph glyph-name="h" unicode="h" horiz-adv-x="1331" 
d="M51 0l0.00292969 113l174 51v1249l-174 41v113l379 10v-619c43.333 36.667 97 70.5 161 101.5s129.667 46.5 197 46.5c109.333 0 191.333 -32.5 246 -97.5s82 -155.5 82 -271.5v-573l154 -51v-113h-492v113l133 49v555c0 74 -13.5 128.333 -40.5 163
s-72.833 52 -137.5 52c-32.667 0 -65.334 -5.66699 -98.001 -17s-60.834 -25 -84.501 -41s-44.834 -32 -63.501 -48s-33 -29.667 -43 -41l-14 -17v-604l133 -51v-113h-512z" />
    <glyph glyph-name="i" unicode="i" horiz-adv-x="686" 
d="M82 0v113l174 51v758l-174 41v112l379 10v-921l153 -51v-113h-532zM215 1423c0 44.667 12.833 79.833 38.5 105.5s57.167 38.5 94.5 38.5c88.667 0 133 -48 133 -144c0 -43.333 -13.833 -78 -41.5 -104s-58.167 -39 -91.5 -39c-41.333 0 -73.833 12.5 -97.5 37.5
s-35.5 60.167 -35.5 105.5z" />
    <glyph glyph-name="j" unicode="j" horiz-adv-x="591" 
d="M-82 -481l19 143h102c67.333 0 114.833 17.5 142.5 52.5s41.5 85.833 41.5 152.5v1055l-174 41v112l379 10v-1177c0 -124.667 -32.833 -222.5 -98.5 -293.5s-159.167 -106.5 -280.5 -106.5c-15.333 0 -33.833 1 -55.5 3l-53.5 5zM172 1423
c0 44.667 12.833 79.833 38.5 105.5s57.167 38.5 94.5 38.5c88.667 0 133 -48 133 -144c0 -43.333 -13.833 -78 -41.5 -104s-58.167 -39 -91.5 -39c-41.333 0 -73.833 12.5 -97.5 37.5s-35.5 60.167 -35.5 105.5z" />
    <glyph glyph-name="k" unicode="k" horiz-adv-x="1187" 
d="M51 0v113l174 51v1249l-174 41v113l379 10v-901h174l154 258l-92 29v112l450 10v-122l-145 -25h-2l-211 -313l264 -461h2l154 -51v-113h-277l-293 522h-178v-358l133 -51v-113h-512z" />
    <glyph glyph-name="l" unicode="l" horiz-adv-x="628" 
d="M51 0v113l174 51v1249l-174 41v113l383 10v-1413l184 -51v-113h-567z" />
    <glyph glyph-name="m" unicode="m" horiz-adv-x="2007" 
d="M82 0l0.00488281 113.001l174 51v758l-174 41v112l338 10l18 -145c14.667 14 33.167 29.167 55.5 45.5s50 34.166 83 53.499s70.167 35.333 111.5 48s81.666 19 120.999 19c138 0 233 -58.667 285 -176c11.333 11.333 26.833 24.666 46.5 39.999s46.834 34.333 81.501 57
s74.667 41.5 120 56.5s89.666 22.5 132.999 22.5c108.667 0 188.667 -32.167 240 -96.5s77 -155.166 77 -272.499v-573l154 -51v-113h-492v113l133 51v553c0 74.667 -12.833 129.167 -38.5 163.5s-70.834 51.5 -135.501 51.5c-32.667 0 -64.834 -5.66699 -96.501 -17
s-58.5 -25 -80.5 -41s-41.667 -32 -59 -48s-30.333 -29.667 -39 -41l-12 -17v-604l134 -51v-113h-472v113l134 51v553c0 74.667 -12.833 129.167 -38.5 163.5s-70.834 51.5 -135.501 51.5c-32.667 0 -64.834 -5.66699 -96.501 -17s-58.5 -25 -80.5 -41s-41.667 -32 -59 -48
s-30 -29.667 -38 -41l-13 -17v-604l133 -51v-113h-512z" />
    <glyph glyph-name="n" unicode="n" horiz-adv-x="1361" 
d="M82 0l0.000976562 112.999l174 51v758l-174 41v112l338 10l18 -145c16 14 35.333 29 58 45s51.167 33.833 85.5 53.5s72.666 35.834 114.999 48.501s83.166 19 122.499 19c109.333 0 191.333 -32.5 246 -97.5s82 -155.5 82 -271.5v-573l153 -51v-113h-491v113l133 51v553
c0 73.333 -14.333 127.5 -43 162.5s-75.667 52.5 -141 52.5c-32.667 0 -65.167 -5.66699 -97.5 -17s-60 -25 -83 -41s-43.667 -32 -62 -48s-32.166 -29.667 -41.499 -41l-13 -17v-604l133 -51v-113h-512z" />
    <glyph glyph-name="o" unicode="o" horiz-adv-x="1167" 
d="M82 532c0 172.667 48.332 311.501 144.999 416.501s222.334 157.5 377.001 157.5c151.333 0 269.333 -49 354 -147s127 -230 127 -396c0 -174 -47 -314.667 -141 -422s-217.667 -161 -371 -161c-156 0 -276.833 46.667 -362.5 140s-128.5 230.666 -128.5 411.999z
M296.999 543.001c0 -266.667 95.666 -400 286.999 -400c100 0 172.667 34.167 218 102.5s68 170.833 68 307.5c0 259.333 -92 389 -276 389c-101.333 0 -176.166 -33 -224.499 -99s-72.5 -166 -72.5 -300z" />
    <glyph glyph-name="p" unicode="p" 
d="M51 963v112l348 10l17 -114c96 90 199.667 135 311 135c144 0 253.333 -47.833 328 -143.5s112 -225.5 112 -389.5c0 -88 -11.167 -167.833 -33.5 -239.5s-55.833 -134 -100.5 -187s-102.5 -94 -173.5 -123s-152.833 -43.5 -245.5 -43.5c-58.667 0 -120 9.33301 -184 28
v-325l215 -41v-113h-584v113l164 41v1239zM430 184c4.66699 -3.33301 11.834 -7.16699 21.501 -11.5s33 -10.333 70 -18s78.167 -11.5 123.5 -11.5c204.667 0 307 136.667 307 410c0 118 -22.167 212.333 -66.5 283s-110.833 106 -199.5 106
c-34.667 0 -67 -4.83301 -97 -14.5s-54.333 -21.667 -73 -36s-34.834 -28.5 -48.501 -42.5s-23.5 -25.667 -29.5 -35l-8 -15v-615z" />
    <glyph glyph-name="q" unicode="q" horiz-adv-x="1187" 
d="M92 512c0 117.333 21 220.168 63 308.501s105.833 158 191.5 209s188.5 76.5 308.5 76.5c66.667 0 131.5 -3.33301 194.5 -10s109.5 -13.334 139.5 -20.001l45 -11v-1382l164 -41v-113h-573v113l204 41v415c-100.667 -78.667 -203 -118 -307 -118
c-286.667 0 -430 177.333 -430 532zM307 532.002c0 -119.333 20.6621 -214 61.9951 -284s106 -105 194 -105c34.667 0 67.334 4.5 98.001 13.5s55.834 20 75.501 33s36.834 26.167 51.501 39.5s25.334 24.333 32.001 33l9 14v646c-40.667 13.333 -108.667 20 -204 20
c-57.333 0 -107.166 -10.667 -149.499 -32s-75.5 -51.166 -99.5 -89.499s-41.5 -81.333 -52.5 -129s-16.5 -100.834 -16.5 -159.501z" />
    <glyph glyph-name="r" unicode="r" horiz-adv-x="952" 
d="M82 0v112.999l174 51v758l-174 41v112l338 10l18 -149c38 42 84 80.833 138 116.5s111.333 53.5 172 53.5c30 0 60.333 -2.66699 91 -8s53.667 -10.666 69 -15.999l24 -7l-10 -297h-134l-30 154c-116.667 0 -215.667 -53.333 -297 -160v-608l205 -51v-113h-584z" />
    <glyph glyph-name="s" unicode="s" horiz-adv-x="960" 
d="M92 786c0 102.667 35.002 181.665 105.002 236.998s160 83 270 83c48 0 101.167 -5.16699 159.5 -15.5s104.833 -20.5 139.5 -30.5l51 -16l-6 -276h-133l-33 160c-42.667 16 -98 24 -166 24c-121.333 0 -182 -45.667 -182 -137c0 -29.333 10.5 -55 31.5 -77
s48.333 -40 82 -54s70.667 -27.667 111 -41s80.833 -28.166 121.5 -44.499s77.834 -35.333 111.501 -57s61 -50.5 82 -86.5s31.5 -77.667 31.5 -125c0 -76 -20.667 -140.833 -62 -194.5s-95.333 -93 -162 -118s-142 -37.5 -226 -37.5c-56 0 -111 3.66699 -165 11
s-94 15 -120 23l-39 11v303h144l22 -176c40.667 -12.667 98 -19 172 -19c154.667 0 232 54 232 162c0 29.333 -10.5 54.833 -31.5 76.5s-48.333 39.167 -82 52.5s-70.834 26.333 -111.501 39s-81.334 27.167 -122.001 43.5s-77.834 35.5 -111.501 57.5s-61 51.833 -82 89.5
s-31.5 81.834 -31.5 132.501z" />
    <glyph glyph-name="t" unicode="t" horiz-adv-x="808" 
d="M41 922v133l205 20v258l205 41v-299h297v-153h-297v-658c0 -83.333 34 -125 102 -125c44.667 0 98 17 160 51l55 -108c-92 -68 -187.667 -102 -287 -102c-69.333 0 -125.833 22.833 -169.5 68.5s-65.5 121.5 -65.5 227.5v646h-205z" />
    <glyph glyph-name="u" unicode="u" horiz-adv-x="1331" 
d="M41 963l0.000976562 112.002l379 10v-718c0 -72.667 14.333 -126.334 43 -161.001s75.667 -52 141 -52c32.667 0 65.167 5.5 97.5 16.5s60 24.333 83 40s43.667 31.5 62 47.5s32.166 29.333 41.499 40l13 17v607l-174 41v112l379 10v-921l174 -41v-113l-338 -10l-20 143
c-23.333 -20 -51 -40.833 -83 -62.5s-76.667 -43.834 -134 -66.501s-111.333 -34 -162 -34c-110 0 -192.167 32 -246.5 96s-81.5 154 -81.5 270v576z" />
    <glyph glyph-name="v" unicode="v" horiz-adv-x="1144" 
d="M10 963v112l461 10v-122l-143 -21l243 -758l246 748l-141 31v112l459 10v-122l-113 -21l-348 -942h-225l-336 932z" />
    <glyph glyph-name="w" unicode="w" horiz-adv-x="1699" 
d="M10 963v112l461 10v-122l-154 -21l175 -758l268 891l194 31l254 -922l164 748l-143 31v112l461 10v-122l-119 -21l-250 -942h-236l-194 635l-49 196l-43 -196l-195 -635h-235l-256 932z" />
    <glyph glyph-name="x" unicode="x" horiz-adv-x="1157" 
d="M10 0v113l180 47l261 383l-263 391l-157 29v112l467 10v-122l-72 -13l158 -264l245 389l297 10v-122l-174 -31l-256 -379l262 -393l189 -47v-113h-500v113l82 24l-168 271l-254 -408h-297z" />
    <glyph glyph-name="y" unicode="y" horiz-adv-x="1181" 
d="M20 963l0.000976562 112l482 10v-122l-144 -21l246 -717l225 707l-143 31v112l485 10v-122l-133 -21l-290 -811c-54 -141.333 -90.333 -232.333 -109 -273c-68 -146 -147.333 -245 -238 -297c-60.667 -35.333 -129.334 -53 -206.001 -53c-15.333 0 -34 1 -56 3l-55 5
l-21 3l19 143h102c66.667 0 125.167 28.167 175.5 84.5s100.5 139.5 150.5 249.5l-367 936z" />
    <glyph glyph-name="z" unicode="z" horiz-adv-x="993" 
d="M92 0v154l598 778h-385l-29 -154h-143v307h789v-153l-600 -778h417l29 163h143v-317h-819z" />
    <glyph glyph-name="braceleft" unicode="{" horiz-adv-x="757" 
d="M61 532v143.998c72 0 122.5 18.5 151.5 55.5s43.5 89.5 43.5 157.5v350c0 126.667 27 216.334 81 269.001s143 79 267 79h92v-133c-97.333 0 -163.666 -15.333 -198.999 -46s-53 -87 -53 -169v-350c0 -69.333 -16 -128.333 -48 -177s-79.333 -84.667 -142 -108
c62.667 -23.333 110 -59.333 142 -108s48 -107.667 48 -177v-432c0 -82 17.667 -138.333 53 -169s101.666 -46 198.999 -46v-133h-92c-124 0 -213 26.333 -267 79s-81 142.334 -81 269.001v432c0 68 -14.5 120.5 -43.5 157.5s-79.5 55.5 -151.5 55.5z" />
    <glyph glyph-name="bar" unicode="|" horiz-adv-x="573" 
d="M205 -471v2017h164v-2017h-164z" />
    <glyph glyph-name="braceright" unicode="}" horiz-adv-x="768" 
d="M82 -328c97.333 0 163.666 15.335 198.999 46.002s53 87 53 169v432c0 69.333 16 128.333 48 177s79.333 84.667 142 108c-62.667 23.333 -110 59.333 -142 108s-48 107.667 -48 177v350c0 82 -17.667 138.333 -53 169s-101.666 46 -198.999 46v133h92
c124 0 213 -26.333 267 -79s81 -142.334 81 -269.001v-350c0 -68 14.5 -120.5 43.5 -157.5s79.5 -55.5 151.5 -55.5v-144c-72 0 -122.5 -18.5 -151.5 -55.5s-43.5 -89.5 -43.5 -157.5v-432c0 -126.667 -27 -216.334 -81 -269.001s-143 -79 -267 -79h-92v133z" />
    <glyph glyph-name="asciitilde" unicode="~" horiz-adv-x="1282" 
d="M123 502l11.498 22.001c5 9.33301 16.833 25.833 35.5 49.5s38.834 44.5 60.501 62.5s50.667 34.333 87 49s74.5 22 114.5 22c42.667 0 84.667 -7.5 126 -22.5s76 -31.5 104 -49.5s61 -34.5 99 -49.5s75 -22.5 111 -22.5c21.333 0 42.5 4.16699 63.5 12.5
s38.833 18.5 53.5 30.5s28 24.167 40 36.5s21 22.833 27 31.5l9 12l94 -74c-3.33301 -6 -7.83301 -13.667 -13.5 -23s-18.167 -26.333 -37.5 -51s-39.666 -46.334 -60.999 -65.001s-48.833 -35.667 -82.5 -51s-67.834 -23 -102.501 -23c-42 0 -85 7.5 -129 22.5
s-81.5 31.5 -112.5 49.5s-66.5 34.5 -106.5 49.5s-77.667 22.5 -113 22.5c-21.333 0 -42.166 -4 -62.499 -12s-37.5 -17.5 -51.5 -28.5s-26.5 -22.167 -37.5 -33.5s-19.167 -21 -24.5 -29l-8 -12z" />
    <glyph glyph-name="uni00A0" unicode="&#xa0;" horiz-adv-x="471" 
 />
    <glyph glyph-name="cent" unicode="&#xa2;" horiz-adv-x="1044" 
d="M92 737c0 130 34.5 240.338 103.5 331.005s167.833 147 296.5 169v197h153v-189c49.333 -2.66699 99.5 -11.334 150.5 -26.001s89.833 -28.667 116.5 -42l40 -20l-10 -266h-133l-31 174c-48 13.333 -106 20 -174 20c-102.667 0 -177.834 -26.333 -225.501 -79
s-71.5 -135.334 -71.5 -248.001c0 -246 102.333 -369 307 -369c32.667 0 64.834 3.5 96.501 10.5s58.5 15.5 80.5 25.5s41.667 20.167 59 30.5s30 19.166 38 26.499l13 10l80 -113l-17.5 -14c-7.66699 -6 -23.667 -16.833 -48 -32.5s-49 -29.834 -74 -42.501
s-55.5 -25.334 -91.5 -38.001s-71 -21 -105 -25v-227h-153v231c-131.333 19.333 -230.833 73.5 -298.5 162.5s-101.5 203.5 -101.5 343.5z" />
    <glyph glyph-name="sterling" unicode="&#xa3;" horiz-adv-x="1280" 
d="M123 0v122.998l113 31c44.667 12 74.5 36.833 89.5 74.5s22.5 101.5 22.5 191.5c0 24.667 -4.66699 113.334 -14 266.001h-211v139l201 23c-4.66699 76.667 -7 142 -7 196c0 128 33.667 228.333 101 301s170.333 109 309 109c72.667 0 144 -5 214 -15
s121.667 -20.333 155 -31l51 -15v-287h-133l-31 170c-82 9.33301 -164 14 -246 14c-143.333 0 -215 -68.333 -215 -205c0 -87.333 2.66699 -165.666 8 -234.999h340v-164h-329c8 -122.667 12 -204.667 12 -246c0 -38 -3.16699 -73.5 -9.5 -106.5s-14 -59.5 -23 -79.5
s-18 -37.167 -27 -51.5s-16.833 -24.5 -23.5 -30.5l-9 -8h520l43 215h133v-379h-1034z" />
    <glyph glyph-name="yen" unicode="&#xa5;" horiz-adv-x="1320" 
d="M20 1311v112l512 11v-123l-139 -41l273 -553l301 553l-158 41v112l491 11v-123l-126 -37l-306 -537h252v-143h-921v143h254l-295 535zM199 317v144h921v-144h-352v-153l174 -41v-123h-563v123l174 41v153h-354z" />
    <glyph glyph-name="dieresis" unicode="&#xa8;" horiz-adv-x="1054" 
d="M205 1434c0 38 10.667 67.832 32 89.499s48 32.5 80 32.5c35.333 0 63 -10.667 83 -32s30 -51.333 30 -90c0 -38 -10.833 -68 -32.5 -90s-48.5 -33 -80.5 -33c-35.333 0 -62.833 10.833 -82.5 32.5s-29.5 51.834 -29.5 90.501zM625 1434c0 38 10.667 67.832 32 89.499
s48 32.5 80 32.5c35.333 0 63 -10.667 83 -32s30 -51.333 30 -90c0 -38 -10.833 -68 -32.5 -90s-48.5 -33 -80.5 -33c-35.333 0 -62.833 10.833 -82.5 32.5s-29.5 51.834 -29.5 90.501z" />
    <glyph glyph-name="copyright" unicode="&#xa9;" horiz-adv-x="1679" 
d="M92 707c0 106 18.998 205.333 56.998 298s89.833 171.834 155.5 237.501s144.834 117.334 237.501 155.001s192 56.5 298 56.5c142 0 269.833 -30.5 383.5 -91.5s202.667 -146.833 267 -257.5s96.5 -236.667 96.5 -378c0 -105.333 -20 -204.5 -60 -297.5
s-94.167 -172.333 -162.5 -238s-149.833 -117.334 -244.5 -155.001s-195 -56.5 -301 -56.5s-204.167 17.833 -294.5 53.5s-167.166 85.167 -230.499 148.5s-112.833 140.166 -148.5 230.499s-53.5 188.5 -53.5 294.5zM255.998 717c0 -175.333 52.333 -317.5 157 -426.5
s243.334 -163.5 416.001 -163.5c174 0 316.5 54.833 427.5 164.5s166.5 251.5 166.5 425.5s-55.5 315.833 -166.5 425.5s-253.5 164.5 -427.5 164.5c-172.667 0 -311.334 -54.5 -416.001 -163.5s-157 -251.167 -157 -426.5zM470.998 702
c0 129.333 34.1641 232.667 102.497 310s161.833 116 280.5 116c38 0 78.667 -5.33301 122 -16s77.333 -21.334 102 -32.001l36 -15l-4 -217h-115l-28 139c-38 11.333 -80.333 17 -127 17c-65.333 0 -114.166 -25 -146.499 -75s-48.5 -122 -48.5 -216
c0 -88.667 18.167 -154.5 54.5 -197.5s86.5 -64.5 150.5 -64.5c32.667 0 67.334 7.5 104.001 22.5s65 29.833 85 44.5l30 23l55 -95l-14 -14c-6 -6 -18.833 -16.333 -38.5 -31s-40 -27.667 -61 -39s-47 -21.666 -78 -30.999s-61.833 -14 -92.5 -14
c-115.333 0 -205.666 32.833 -270.999 98.5s-98 161.167 -98 286.5z" />
    <glyph glyph-name="guillemotleft" unicode="&#xab;" horiz-adv-x="1105" 
d="M123 481v123l287 328l122 -82l-225 -307l225 -307l-122 -82zM563 481v123l297 328l123 -82l-235 -307l235 -307l-123 -82z" />
    <glyph glyph-name="uni00AD" unicode="&#xad;" horiz-adv-x="768" 
d="M123 471v174h532v-174h-532z" />
    <glyph glyph-name="registered" unicode="&#xae;" horiz-adv-x="1474" 
d="M113 922c0 118 26.999 224.498 80.999 319.498s128.5 169.5 223.5 223.5s201.5 81 319.5 81c118.667 0 225.334 -25.167 320.001 -75.5s169.167 -121.666 223.5 -213.999s81.5 -197.166 81.5 -314.499s-28.667 -223.833 -86 -319.5s-135.333 -170.5 -234 -224.5
s-207 -81 -325 -81c-178.667 0 -324 56 -436 168s-168 257.667 -168 437zM265.999 931.998c0 -145.333 41.333 -261.833 124 -349.5s195 -131.5 337 -131.5c143.333 0 259.333 44.333 348 133s133 204.667 133 348s-44.333 259.333 -133 348s-204.667 133 -348 133
c-142 0 -254.333 -43.833 -337 -131.5s-124 -204.167 -124 -349.5zM439.999 603.998v82.002l82 21v475l-82 16v76l308 6c69.333 0 126.5 -16.5 171.5 -49.5s67.5 -79.167 67.5 -138.5c0 -88.667 -42.333 -149 -127 -181l2 -1c1.33301 -1.33301 3 -2.83301 5 -4.5
s4.33301 -3.83398 7 -6.50098s5.66699 -5.83398 9 -9.50098s6.83301 -8 10.5 -13s7.66699 -11 12 -18s8.5 -14.5 12.5 -22.5l65 -129l82 -21v-82h-176l-82 174c-22 47.333 -39.5 77 -52.5 89s-33.167 18 -60.5 18h-39v-178l82 -21v-82h-297zM654.999 979h71.999
c36.667 0 66.334 9 89.001 27s34 43 34 75c0 30 -10 53.667 -30 71s-47.667 26 -83 26h-82v-199z" />
    <glyph glyph-name="acute" unicode="&#xb4;" horiz-adv-x="501" 
d="M0 1321l399 317l103 -153l-430 -266z" />
    <glyph glyph-name="cedilla" unicode="&#xb8;" horiz-adv-x="892" 
d="M225 -391l48.999 84c56 -28.667 108.667 -43 158 -43c34 0 61.333 8 82 24s31 37.333 31 64c0 31.333 -15 55.833 -45 73.5s-71 26.5 -123 26.5v162h123v-88c55.333 -9.33301 98.833 -29.666 130.5 -60.999s47.5 -70.333 47.5 -117
c0 -54.667 -20.5 -98.834 -61.5 -132.501s-94.833 -50.5 -161.5 -50.5c-39.333 0 -78.166 4.83301 -116.499 14.5s-66.833 19.167 -85.5 28.5z" />
    <glyph glyph-name="guillemotright" unicode="&#xbb;" horiz-adv-x="1105" 
d="M123 236l235 307l-235 307l123 82l297 -328v-123l-297 -327zM573 236l226 307l-226 307l123 82l287 -328v-123l-287 -327z" />
    <glyph glyph-name="circumflex" unicode="&#x2c6;" horiz-adv-x="1064" 
d="M174 1423l297 246l123 10l297 -256l-82 -92l-272 191l-281 -191z" />
    <glyph glyph-name="ring" unicode="&#x2da;" horiz-adv-x="798" 
d="M164 1444c0 69.333 23.667 125.833 71 169.5s102 65.5 164 65.5c62.667 0 117.667 -20.333 165 -61s71 -95.334 71 -164.001c0 -69.333 -23.833 -125.833 -71.5 -169.5s-102.5 -65.5 -164.5 -65.5c-62.667 0 -117.5 20.333 -164.5 61s-70.5 95.334 -70.5 164.001z
M287 1448c0 -40.667 9.66699 -72 29 -94s47 -33 83 -33c32.667 0 59.667 11.5 81 34.5s32 54.5 32 94.5c0 40.667 -9.83301 72 -29.5 94s-47.5 33 -83.5 33c-32.667 0 -59.5 -11.5 -80.5 -34.5s-31.5 -54.5 -31.5 -94.5z" />
    <glyph glyph-name="tilde" unicode="&#x2dc;" horiz-adv-x="1157" 
d="M195 1372c2 5.33301 5.16797 12.3311 9.50098 20.998s13.833 24 28.5 46s30 41.5 46 58.5s36.833 32.5 62.5 46.5s51.834 21 78.501 21c32 0 64.5 -5 97.5 -15s61 -20.833 84 -32.5s49.667 -22.5 80 -32.5s59.166 -15 86.499 -15c24 0 47.167 7.16699 69.5 21.5
s38.5 28.5 48.5 42.5l15 22l72 -71c-2 -5.33301 -4.83301 -12 -8.5 -20s-12.334 -22.667 -26.001 -44s-28 -40.166 -43 -56.499s-35 -31.166 -60 -44.499s-50.833 -20 -77.5 -20c-40 0 -80.5 7.66699 -121.5 23l-118.5 45.5c-38 15 -74 22.5 -108 22.5
c-24 0 -48 -7.5 -72 -22.5s-42 -30.167 -54 -45.5l-18 -23z" />
    <glyph glyph-name="uni0400" unicode="&#x400;" 
d="M102 0v123l174 41v1106l-174 41v112l390 11h624v-349h-133l-51 185h-440v-441h471v-163h-471v-502h471l41 205h133v-369h-1035zM358 1761l103 154l379 -297l-82 -113z" />
    <glyph glyph-name="afii10023" unicode="&#x401;" 
d="M102 0v123l174 41v1106l-174 41v112l390 11h624v-349h-133l-51 185h-440v-441h471v-163h-471v-502h471l41 205h133v-369h-1035zM328 1690c0 38 10.667 67.832 32 89.499s48 32.5 80 32.5c35.333 0 63 -10.667 83 -32s30 -51.333 30 -90c0 -38 -10.833 -68 -32.5 -90
s-48.5 -33 -80.5 -33c-35.333 0 -62.833 10.833 -82.5 32.5s-29.5 51.834 -29.5 90.501zM748 1690c0 38 10.667 67.832 32 89.499s48 32.5 80 32.5c35.333 0 63 -10.667 83 -32s30 -51.333 30 -90c0 -38 -10.833 -68 -32.5 -90s-48.5 -33 -80.5 -33
c-35.333 0 -62.833 10.833 -82.5 32.5s-29.5 51.834 -29.5 90.501z" />
    <glyph glyph-name="afii10051" unicode="&#x402;" horiz-adv-x="1505" 
d="M20 1065l0.00195312 368.998h1158v-369h-134l-51 205h-307v-520c27.333 18.667 49.833 33.167 67.5 43.5s44.5 24.5 80.5 42.5s73.667 31.667 113 41s79.333 14 120 14c114 0 200.167 -37.5 258.5 -112.5s87.5 -174.167 87.5 -297.5
c0 -70.667 -7.5 -135.167 -22.5 -193.5s-37.667 -110 -68 -155s-70.833 -80 -121.5 -105s-109.667 -37.5 -177 -37.5c-15.333 0 -34.166 0.833008 -56.499 2.5s-40.833 3.5 -55.5 5.5l-23 2l22 164h93c42 0 76.333 6.33301 103 19s46.5 32.834 59.5 60.501
s21.5 56.834 25.5 87.501s6 70.667 6 120c0 82 -15.833 145.167 -47.5 189.5s-84.167 66.5 -157.5 66.5c-28.667 0 -58.834 -5 -90.501 -15s-59.834 -22 -84.501 -36s-47.334 -28 -68.001 -42s-36.667 -26 -48 -36l-16 -15v-563h-420v123l205 41v1106h-266l-51 -205h-134z
" />
    <glyph glyph-name="afii10052" unicode="&#x403;" horiz-adv-x="1116" 
d="M82 0v123l174 41v1106l-174 41v112l389 11h625v-338h-133l-52 174h-440v-1106l205 -41v-123h-594zM440 1614l373 297l105 -150l-400 -256z" />
    <glyph glyph-name="afii10053" unicode="&#x404;" horiz-adv-x="1353" 
d="M123 686c0 237.333 58.502 424.667 175.502 562s278.833 206 485.5 206c62.667 0 131.167 -8.5 205.5 -25.5s133.166 -33.833 176.499 -50.5l65 -26l-10 -328h-154l-43 215c-2 0.666992 -10 3 -24 7s-24.833 7 -32.5 9s-20 4.83301 -37 8.5s-32.833 6.5 -47.5 8.5
s-32.667 3.83301 -54 5.5s-43 2.5 -65 2.5c-116.667 0 -209.5 -39.5 -278.5 -118.5s-110.833 -193.833 -125.5 -344.5h615v-164h-621c6.66699 -161.333 49.167 -283.166 127.5 -365.499s177.166 -123.5 296.499 -123.5c47.333 0 94.833 5.66699 142.5 17
s89.5 25.666 125.5 42.999s64 32 84 44s36.667 23 50 33l86 -123c-18 -18 -40.667 -36.667 -68 -56s-62.5 -40.5 -105.5 -63.5s-94 -41.833 -153 -56.5s-119.5 -22 -181.5 -22c-194 0 -348.333 61.167 -463 183.5s-172 296.5 -172 522.5z" />
    <glyph glyph-name="afii10054" unicode="&#x405;" horiz-adv-x="1222" 
d="M143 61l-0.00390625 359.003h164l41 -215c6.66699 -4 16.334 -8.83301 29.001 -14.5s38.667 -13.167 78 -22.5s78.666 -14 117.999 -14c52 0 101.333 7.83301 148 23.5s86 40.667 118 75s48 74.5 48 120.5c0 33.333 -8.5 63.166 -25.5 89.499s-39.667 48.5 -68 66.5
s-61 34.667 -98 50s-76 30 -117 44s-82 29 -123 45s-80 35.167 -117 57.5s-69.667 47.5 -98 75.5s-51 63 -68 105s-25.5 89 -25.5 141c0 69.333 13.167 130.666 39.5 183.999s62.333 95.833 108 127.5s97 55.5 154 71.5s118.5 24 184.5 24c58 0 123 -6.83301 195 -20.5
s129.333 -27.5 172 -41.5l65 -20l-10 -348h-133l-70 219c-69.333 24.667 -141.666 37 -216.999 37c-87.333 0 -154.666 -19.333 -201.999 -58s-71 -85.667 -71 -141c0 -33.333 8.33301 -63 25 -89s39.334 -48 68.001 -66s61.5 -34.667 98.5 -50s75.833 -30 116.5 -44
l122 -44c40.667 -15.333 79.5 -33.666 116.5 -54.999s69.833 -45.333 98.5 -72s51.334 -59.834 68.001 -99.501s25 -84.167 25 -133.5c0 -74.667 -14.333 -141 -43 -199s-67.834 -104.833 -117.501 -140.5s-106.167 -62.667 -169.5 -81s-131.666 -27.5 -204.999 -27.5
c-64 0 -131.167 6.66699 -201.5 20s-124.833 26.666 -163.5 39.999z" />
    <glyph glyph-name="afii10055" unicode="&#x406;" horiz-adv-x="747" 
d="M92 0v123l174 41v1106l-174 41v112l563 11v-123l-174 -41v-1106l174 -41v-123h-563z" />
    <glyph glyph-name="afii10056" unicode="&#x407;" horiz-adv-x="727" 
d="M41 1690c0 37.333 10.833 66.999 32.5 88.999s48.5 33 80.5 33c35.333 0 62.833 -10.667 82.5 -32s29.5 -51.333 29.5 -90c0 -38 -10.667 -68 -32 -90s-48 -33 -80 -33c-35.333 0 -63 10.833 -83 32.5s-30 51.834 -30 90.501zM92 -0.000976562v123l174 41v1106l-174 41
v112l563 11v-123l-174 -41v-1106l174 -41v-123h-563zM461 1690c0 38 10.667 67.832 32 89.499s48 32.5 80 32.5c35.333 0 63 -10.667 83 -32s30 -51.333 30 -90c0 -38 -10.833 -68 -32.5 -90s-48.5 -33 -80.5 -33c-35.333 0 -62.833 10.833 -82.5 32.5
s-29.5 51.834 -29.5 90.501z" />
    <glyph glyph-name="afii10057" unicode="&#x408;" horiz-adv-x="735" 
d="M-41 -297l18.001 154h103c64.667 0 111.5 16.333 140.5 49s43.5 81 43.5 145v1219l-174 41v112l563 11v-123l-174 -41v-1178c0 -124 -34.333 -221.5 -103 -292.5s-164 -106.5 -286 -106.5c-15.333 0 -33.833 0.833008 -55.5 2.5s-39.834 3.16699 -54.501 4.5z" />
    <glyph glyph-name="afii10058" unicode="&#x409;" horiz-adv-x="1937" 
d="M10 16l34.998 215c20.667 -4 48.667 -6 84 -6c68 0 120.5 26.167 157.5 78.5s62.167 138.833 75.5 259.5c21.333 184.667 37.333 420.334 48 707.001l-256 41v123h1230v-123l-204 -41v-441h188c80 0 150.833 -6.5 212.5 -19.5s116.834 -34 165.501 -63
s85.834 -69.333 111.501 -121s38.5 -113.5 38.5 -185.5c0 -145.333 -44.833 -255 -134.5 -329s-215.5 -111 -377.5 -111h-624v123l205 41v1106l18 14l-20 -14h-390c-14.667 -330.667 -30.334 -572.334 -47.001 -725.001c-6 -54.667 -11.833 -101.667 -17.5 -141
s-13.167 -79.5 -22.5 -120.5s-19.833 -75.5 -31.5 -103.5s-26.167 -54.833 -43.5 -80.5s-37 -46 -59 -61s-48.167 -26.833 -78.5 -35.5s-64.166 -13 -101.499 -13c-44.667 0 -98.667 8.66699 -162 26zM1180 164h215c88 0 157.667 22.333 209 67s77 107.667 77 189
c0 170.667 -109 256 -327 256h-174v-512z" />
    <glyph glyph-name="afii10059" unicode="&#x40a;" horiz-adv-x="2088" 
d="M82 0l-0.00195312 123l174 41v1106l-174 41v112l584 11v-123l-195 -41v-441h666v441l-195 41v112l410 11h204v-123l-204 -41v-441h188c80 0 150.833 -6.5 212.5 -19.5s116.834 -34 165.501 -63s85.834 -69.333 111.501 -121s38.5 -113.5 38.5 -185.5
c0 -145.333 -44.833 -255 -134.5 -329s-215.5 -111 -377.5 -111h-614v123l195 41v502h-666v-502l195 -41v-123h-584zM1352 164h215c88 0 157.667 22.333 209 67s77 107.667 77 189c0 170.667 -109 256 -327 256h-174v-512z" />
    <glyph glyph-name="afii10060" unicode="&#x40b;" horiz-adv-x="1617" 
d="M20 1065v369.001h1158v-369h-134l-51 205h-307v-537c53.333 45.333 96 77.333 128 96c83.333 48 173.666 72 270.999 72c114.667 0 199.667 -32.333 255 -97s83 -155.334 83 -272.001v-368l154 -51v-113h-522v113l153 49v340c0 143.333 -62.667 215 -188 215
c-40 0 -78.833 -5.66699 -116.5 -17s-69.167 -25 -94.5 -41s-47.666 -32 -66.999 -48s-33.333 -29.667 -42 -41l-14 -17v-389l164 -41v-123h-584v123l205 41v1106h-266l-51 -205h-134z" />
    <glyph glyph-name="afii10061" unicode="&#x40c;" horiz-adv-x="1413" 
d="M92 0v123l174 41v1106l-174 41v112l584 11v-123l-195 -41v-451h189l354 604l338 11v-123l-203 -41l-311 -518l422 -588l174 -41v-123h-584v123l174 41l-352 491h-201v-491l195 -41v-123h-584zM524 1614l373 297l104 -150l-399 -256z" />
    <glyph glyph-name="uni040D" unicode="&#x40d;" horiz-adv-x="1634" 
d="M82 0v123l174 41v1106l-174 41v112l584 11v-123l-195 -41v-819l692 747v72l-194 41v112l583 11v-123l-174 -41v-1106l174 -41v-123h-583v123l194 41v813l-692 -741v-72l195 -41v-123h-584zM492 1761l102 154l379 -297l-82 -113z" />
    <glyph glyph-name="afii10062" unicode="&#x40e;" horiz-adv-x="1380" 
d="M-10 1311v112.001l551 11v-123l-174 -41l344 -744l303 744l-185 41v112l543 11v-123l-164 -41l-346 -840c-62.667 -152.667 -131.167 -265.834 -205.5 -339.501s-149.166 -110.5 -224.499 -110.5c-76.667 0 -157.334 17.667 -242.001 53l41 153
c70.667 -21.333 131 -32 181 -32c84 0 150.667 46.333 200 139l-469 977zM344 1841l224.999 10v-139c36.667 -28.667 84.667 -43 144 -43c57.333 0 104.333 14.333 141 43v139l225 -10c0 -88.667 -35.5 -160 -106.5 -214s-158.167 -81 -261.5 -81s-190.166 27 -260.499 81
s-105.833 125.333 -106.5 214z" />
    <glyph glyph-name="afii10145" unicode="&#x40f;" horiz-adv-x="1525" 
d="M82 0v123l174 41v1106l-174 41v112l584 11v-123l-195 -41v-1106h584v1106l-195 41v112l584 11v-123l-174 -41v-1106l174 -41v-123h-584l-47 -358h-123l-45 358h-563z" />
    <glyph glyph-name="afii10017" unicode="&#x410;" horiz-adv-x="1484" 
d="M10 0v123l168 39l467 1261l205 11l455 -1272l170 -39v-123h-594v123l190 39l-78 227h-532l-80 -227l192 -39v-123h-563zM516 553h422l-207 616z" />
    <glyph glyph-name="afii10018" unicode="&#x411;" horiz-adv-x="1255" 
d="M82 0l0.000976562 123l174 41v1106l-174 41v112l395 11h604v-369h-133l-51 205h-430v-471h188c63.333 0 121 -3.83301 173 -11.5s100.5 -20.667 145.5 -39s82.667 -41.833 113 -70.5s54.166 -64.834 71.499 -108.501s26 -93.5 26 -149.5
c0 -142 -43.5 -247.167 -130.5 -315.5s-210.833 -103.166 -371.5 -104.499h-600zM467.001 164h215c90.667 0 161.167 19.333 211.5 58s75.5 97.667 75.5 177c0 164 -109.333 246 -328 246h-174v-481z" />
    <glyph glyph-name="afii10019" unicode="&#x412;" horiz-adv-x="1290" 
d="M82 0l0.000976562 123l174 41v1106l-174 41v112l379 11h235c134 0 241 -30.167 321 -90.5s120 -149.833 120 -268.5c0 -176.667 -89 -287.334 -267 -332.001c106 -24 185.5 -64.667 238.5 -122s79.5 -127.666 79.5 -210.999c0 -140.667 -43.833 -244.167 -131.5 -310.5
s-217.834 -99.5 -390.501 -99.5h-584zM461.001 164h215.001c97.333 0 171.166 19.833 221.499 59.5s75.5 98.167 75.5 175.5c0 98 -30 167 -90 207s-149.667 60 -269 60h-153v-502zM461.002 819h153c96 0 171.333 19.5 226 58.5s82 98.167 82 177.5
c0 68.667 -22 121.667 -66 159s-100.667 56 -170 56h-225v-451z" />
    <glyph glyph-name="afii10020" unicode="&#x413;" horiz-adv-x="1116" 
d="M82 0v123l174 41v1106l-174 41v112l389 11h625v-369h-133l-52 205h-440v-1106l205 -41v-123h-594z" />
    <glyph glyph-name="afii10021" unicode="&#x414;" horiz-adv-x="1507" 
d="M41 -358l12.001 491c40 9.33301 73.167 19 99.5 29s50.166 23.667 71.499 41s38.333 35.5 51 54.5s24.167 45.5 34.5 79.5s18.5 69.5 24.5 106.5s12.667 85.167 20 144.5c29.333 242 48 469.333 56 682l-226 41v123h1180v-123l-174 -41v-1106l225 -37l10 -485h-122
l-103 358h-934l-102 -358h-123zM385.001 164h590v1106h-402c-10 -214.667 -28.333 -443.334 -55 -686.001c-12 -107.333 -27.667 -193.166 -47 -257.499s-48 -118.5 -86 -162.5z" />
    <glyph glyph-name="afii10022" unicode="&#x415;" 
d="M102 0v123l174 41v1106l-174 41v112l390 11h624v-349h-133l-51 185h-440v-441h471v-163h-471v-502h471l41 205h133v-369h-1035z" />
    <glyph glyph-name="afii10024" unicode="&#x416;" horiz-adv-x="1996" 
d="M-31 0v123l174 41l422 588l-319 518l-203 41v123l338 -11l362 -604h158v451l-174 41v112l563 11v-123l-194 -41v-451h176l362 604l320 11v-123l-203 -41l-319 -518l421 -588l175 -41v-123h-584v123l174 41l-352 491h-170v-491l164 -41v-123h-502v123l143 41v491h-170
l-352 -491l174 -41v-123h-584z" />
    <glyph glyph-name="afii10025" unicode="&#x417;" horiz-adv-x="1181" 
d="M70 74l55.0039 168.004c132.667 -58.667 258.334 -88 377.001 -88c109.333 0 195.333 23 258 69s94 111.667 94 197c0 77.333 -30.167 137.666 -90.5 180.999s-146.166 65 -257.499 65h-199v163h209c103.333 0 182.166 20.667 236.499 62s81.5 102.666 81.5 183.999
c0 62 -25.833 111.667 -77.5 149s-122.834 56 -213.501 56c-45.333 0 -89.333 -3.33301 -132 -10s-74 -13.334 -94 -20.001l-30 -11l-31 -195h-154l-10 328c16.667 6 39.667 13.5 69 22.5s84.5 21.167 165.5 36.5s156.5 23 226.5 23c76 0 143.667 -6.83301 203 -20.5
s111.166 -34.5 155.499 -62.5s78.333 -65.167 102 -111.5s35.5 -100.833 35.5 -163.5c0 -88.667 -23 -162.167 -69 -220.5s-113.333 -98.833 -202 -121.5c92 -18.667 165.167 -58.834 219.5 -120.501s81.5 -129.5 81.5 -203.5c0 -65.333 -10.833 -124 -32.5 -176
s-50.834 -94.833 -87.501 -128.5s-80.334 -61.667 -131.001 -84s-103.5 -38.166 -158.5 -47.499s-113.5 -14 -175.5 -14c-42.667 0 -84.834 2.66699 -126.501 8s-75 10.666 -100 15.999s-54.5 14 -88.5 26s-54.333 19.5 -61 22.5z" />
    <glyph glyph-name="afii10026" unicode="&#x418;" horiz-adv-x="1634" 
d="M82 0v123l174 41v1106l-174 41v112l584 11v-123l-195 -41v-819l692 747v72l-194 41v112l583 11v-123l-174 -41v-1106l174 -41v-123h-583v123l194 41v813l-692 -741v-72l195 -41v-123h-584z" />
    <glyph glyph-name="afii10027" unicode="&#x419;" horiz-adv-x="1634" 
d="M82 0v123l174 41v1106l-174 41v112l584 11v-123l-195 -41v-819l692 747v72l-194 41v112l583 11v-123l-174 -41v-1106l174 -41v-123h-583v123l194 41v813l-692 -741v-72l195 -41v-123h-584zM461 1851l224.999 11v-140c36.667 -28.667 84.334 -43 143.001 -43
c58 0 105.333 14.333 142 43v140l225 -11c0 -88.667 -35.5 -160 -106.5 -214s-158.5 -81 -262.5 -81c-103.333 0 -190 27 -260 81s-105.333 125.333 -106 214z" />
    <glyph glyph-name="afii10028" unicode="&#x41a;" horiz-adv-x="1413" 
d="M92 0v123l174 41v1106l-174 41v112l584 11v-123l-195 -41v-451h189l354 604l338 11v-123l-203 -41l-311 -518l422 -588l174 -41v-123h-584v123l174 41l-352 491h-201v-491l195 -41v-123h-584z" />
    <glyph glyph-name="afii10029" unicode="&#x41b;" horiz-adv-x="1433" 
d="M0 16l35 215.001c20.667 -4 48.667 -6 84 -6c68 0 120.5 26.167 157.5 78.5s62.167 138.833 75.5 259.5c20 176 35.667 411.667 47 707l-256 41v123h1209v-123l-174 -41v-1106l174 -41v-123h-594v123l205 41v1106h-400
c-14.667 -330.667 -30.334 -572.334 -47.001 -725.001c-6 -54.667 -11.833 -101.667 -17.5 -141s-13.167 -79.5 -22.5 -120.5s-19.833 -75.5 -31.5 -103.5s-26.167 -54.833 -43.5 -80.5s-37 -46 -59 -61s-48.167 -26.833 -78.5 -35.5s-64.166 -13 -101.499 -13
c-44.667 0 -98.667 8.66699 -162 26z" />
    <glyph glyph-name="afii10030" unicode="&#x41c;" horiz-adv-x="1812" 
d="M82 0v123l174 41v1106l-174 41v112l461 11l370 -820l387 809l431 11v-123l-175 -41v-1106l175 -41v-123h-574v123l195 41v1024l-62 -154l-317 -645l-164 -10l-317 665l-52 144v-1024l195 -41v-123h-553z" />
    <glyph glyph-name="afii10031" unicode="&#x41d;" horiz-adv-x="1628" 
d="M82 0v123l174 41v1106l-174 41v112l584 11v-123l-195 -41v-451h686v451l-194 41v112l583 11v-123l-174 -41v-1106l174 -41v-123h-583v123l194 41v491h-686v-491l195 -41v-123h-584z" />
    <glyph glyph-name="afii10032" unicode="&#x41e;" horiz-adv-x="1546" 
d="M123 707c0 226.667 59.834 407.832 179.501 543.499s281.5 203.5 485.5 203.5c198.667 0 354.167 -64.167 466.5 -192.5s168.5 -303.166 168.5 -524.499c0 -111.333 -16.5 -214 -49.5 -308s-79 -174 -138 -240s-130.333 -117.333 -214 -154s-174.834 -55 -273.501 -55
c-200 0 -354.167 62.5 -462.5 187.5s-162.5 304.833 -162.5 539.5zM358.001 716.998c0 -185.333 33.5 -325.5 100.5 -420.5s166.833 -142.5 299.5 -142.5c136 0 241.667 48 317 144s113 239 113 429c0 183.333 -34.833 321.333 -104.5 414s-171.5 139 -305.5 139
c-136 0 -240 -46.167 -312 -138.5s-108 -233.833 -108 -424.5z" />
    <glyph glyph-name="afii10033" unicode="&#x41f;" horiz-adv-x="1587" 
d="M82 0v123l174 41v1106l-174 41v112l389 11h1034v-123l-174 -41v-1106l174 -41v-123h-583v123l194 41v1106h-645v-1106l195 -41v-123h-584z" />
    <glyph glyph-name="afii10034" unicode="&#x420;" horiz-adv-x="1208" 
d="M82 0l0.000976562 123l174 41v1106l-174 41v112l389 11h215c151.333 0 267.666 -37.5 348.999 -112.5s122 -177.5 122 -307.5c0 -156.667 -48.167 -276.167 -144.5 -358.5s-232.5 -123.5 -408.5 -123.5h-133v-368l174 -41v-123h-563zM471.001 696h133
c111.333 0 195.5 24.667 252.5 74s85.5 120.333 85.5 213c0 84.667 -23.167 153.667 -69.5 207s-111.833 80 -196.5 80h-205v-574z" />
    <glyph glyph-name="afii10035" unicode="&#x421;" horiz-adv-x="1361" 
d="M123 686c0 235.333 61.833 422.168 185.5 560.501s290.5 207.5 500.5 207.5c66.667 0 138.334 -8.5 215.001 -25.5s136.667 -33.833 180 -50.5l66 -26l-10 -348h-154l-55 235c-72.667 27.333 -160.334 41 -263.001 41c-138.667 0 -245 -50.167 -319 -150.5
s-111 -244.833 -111 -433.5c0 -177.333 39.833 -310.333 119.5 -399s186.834 -133 321.501 -133c40 0 81.5 5.66699 124.5 17s80.667 25 113 41s61.833 32 88.5 48s47 29.667 61 41l22 17l82 -133c-5.33301 -6 -13.333 -13.833 -24 -23.5s-33.334 -26.834 -68.001 -51.501
s-70.5 -46.5 -107.5 -65.5s-84 -36.167 -141 -51.5s-114.167 -23 -171.5 -23c-207.333 0 -368.333 60.667 -483 182s-172 296 -172 524z" />
    <glyph glyph-name="afii10036" unicode="&#x422;" horiz-adv-x="1157" 
d="M20 1065v369h1117v-369h-133l-52 205h-266v-1106l205 -41v-123h-625v123l205 41v1106h-266l-51 -205h-134z" />
    <glyph glyph-name="afii10037" unicode="&#x423;" horiz-adv-x="1380" 
d="M-10 1311v112.001l551 11v-123l-174 -41l344 -744l303 744l-185 41v112l543 11v-123l-164 -41l-346 -840c-62.667 -152.667 -131.167 -265.834 -205.5 -339.501s-149.166 -110.5 -224.499 -110.5c-76.667 0 -157.334 17.667 -242.001 53l41 153
c70.667 -21.333 131 -32 181 -32c84 0 150.667 46.333 200 139l-469 977z" />
    <glyph glyph-name="afii10038" unicode="&#x424;" horiz-adv-x="1837" 
d="M133 694c0 174 59.333 310.499 178 409.499s290.667 155.167 516 168.5v74l-174 38v113l531 10v-123l-174 -38v-70c231.333 -6.66699 404.833 -54.5 520.5 -143.5s173.5 -215.167 173.5 -378.5c0 -168 -60 -300.667 -180 -398s-291.333 -152.666 -514 -165.999v-69
l174 -39v-123h-531v123l174 39v67c-234 6 -408.167 49.833 -522.5 131.5s-171.5 206.5 -171.5 374.5zM358 724.999c0 -130 36.667 -224.5 110 -283.5s193 -92.167 359 -99.5v778c-162 -7.33301 -280.667 -42 -356 -104s-113 -159 -113 -291zM1010 341.999
c164.667 8 284 41.332 358 99.999s111 154.334 111 287.001c0 132 -36.833 229 -110.5 291s-193.167 96 -358.5 102v-780z" />
    <glyph glyph-name="afii10039" unicode="&#x425;" horiz-adv-x="1433" 
d="M20 0v123l134 31l430 573l-379 543l-154 41v112l543 11v-123l-133 -41l266 -389l266 389l-143 41v112l543 11v-123l-185 -41l-368 -533l399 -573l174 -41v-123h-553v123l123 31l-287 419l-307 -409l174 -41v-123h-543z" />
    <glyph glyph-name="afii10040" unicode="&#x426;" horiz-adv-x="1652" 
d="M82 0v123l174 41v1106l-174 41v112l584 11v-123l-195 -41v-1106h645v1106l-194 41v112l583 11v-123l-174 -41v-1106l230 -39l10 -483h-123l-102 358h-1264z" />
    <glyph glyph-name="afii10041" unicode="&#x427;" horiz-adv-x="1402" 
d="M20 1321l0.000976562 101.999l533 11v-113l-164 -49v-279c0 -107.333 20.333 -183.666 61 -228.999s99 -68 175 -68c43.333 0 88.666 3.66699 135.999 11s83.5 14.5 108.5 21.5s45.833 13.5 62.5 19.5v522l-164 41v112l553 11v-123l-174 -41v-1106l174 -31v-133h-614v133
l225 31v416c-34.667 -12.667 -61.5 -22.167 -80.5 -28.5s-55.333 -14.5 -109 -24.5s-106.5 -15 -158.5 -15c-128.667 0 -229.167 37.333 -301.5 112s-108.5 191 -108.5 349v297z" />
    <glyph glyph-name="afii10042" unicode="&#x428;" horiz-adv-x="2119" 
d="M82 0v123l174 41v1106l-174 41v112l543 11v-123l-154 -41v-1106h481v1106l-153 41v112l522 11v-123l-154 -41v-1106h482v1106l-154 41v112l543 11v-123l-174 -41v-1106l174 -41v-123h-1956z" />
    <glyph glyph-name="afii10043" unicode="&#x429;" horiz-adv-x="2183" 
d="M82 0v123l174 41v1106l-174 41v112l543 11v-123l-154 -41v-1106h481v1106l-153 41v112l522 11v-123l-154 -41v-1106h482v1106l-154 41v112l543 11v-123l-174 -41v-1106l227 -37l10 -485h-123l-102 358h-1794z" />
    <glyph glyph-name="afii10044" unicode="&#x42a;" horiz-adv-x="1429" 
d="M20 1065l-0.000976562 369h836v-123l-205 -41v-430h189c80.667 0 151.667 -6.66699 213 -20s116.333 -34.833 165 -64.5s85.834 -71 111.501 -124s38.5 -116.833 38.5 -191.5c0 -145.333 -44.833 -255 -134.5 -329s-215.5 -111 -377.5 -111h-610v123l194 41v1106h-235
l-51 -205h-134zM650.999 164h215.001c88 0 157.833 22.5 209.5 67.5s77.5 107.833 77.5 188.5c0 52 -8.66699 96 -26 132s-41.833 63.333 -73.5 82s-65.834 32 -102.501 40s-78.667 12 -126 12h-174v-522z" />
    <glyph glyph-name="afii10045" unicode="&#x42b;" horiz-adv-x="1869" 
d="M82 0l0.000976562 123l174 41v1106l-174 41v112l590 11v-123l-205 -41v-430h188c64 0 121.833 -4 173.5 -12s100 -21.5 145 -40.5s82.667 -43.667 113 -74s54.166 -68.5 71.499 -114.5s26 -99 26 -159c0 -145.333 -44.833 -255 -134.5 -329s-215.5 -111 -377.5 -111h-590
zM467.001 164h215.001c88 0 157.833 22.5 209.5 67.5s77.5 107.833 77.5 188.5c0 52 -8.66699 96 -26 132s-41.833 63.333 -73.5 82s-65.834 32 -102.501 40s-78.667 12 -126 12h-174v-522zM1225 0v123l174 41v1106l-174 41v112l563 11v-123l-174 -41v-1106l174 -41v-123
h-563z" />
    <glyph glyph-name="afii10046" unicode="&#x42c;" horiz-adv-x="1198" 
d="M82 0l0.000976562 123l174 41v1106l-174 41v112l584 11v-123l-205 -41v-430h188c64 0 121.833 -4 173.5 -12s100 -21.5 145 -40.5s82.667 -43.667 113 -74s54.166 -68.5 71.499 -114.5s26 -99 26 -159c0 -145.333 -44.833 -255 -134.5 -329s-215.5 -111 -377.5 -111h-584
zM461.001 164h215.001c88 0 157.833 22.5 209.5 67.5s77.5 107.833 77.5 188.5c0 52 -8.66699 96 -26 132s-41.833 63.333 -73.5 82s-65.834 32 -102.501 40s-78.667 12 -126 12h-174v-522z" />
    <glyph glyph-name="afii10047" unicode="&#x42d;" horiz-adv-x="1353" 
d="M90 180l94.001 120.998c53.333 -38 95.333 -64 126 -78c81.333 -39.333 172.666 -59 273.999 -59c117.333 0 213.166 41.833 287.499 125.5s117.5 204.834 129.5 363.501h-602v164h602c-12 152 -54.833 267.5 -128.5 346.5s-167.834 118.5 -282.501 118.5
c-83.333 0 -166.666 -13.667 -249.999 -41l-43 -217h-154l-10 328c17.333 7.33301 41.333 16.666 72 27.999s87.834 26.333 171.501 45s161.5 28.334 233.5 29.001c203.333 2 359 -57.5 467 -178.5s162 -296.833 162 -527.5c0 -115.333 -17 -221.333 -51 -318
s-80.833 -177.667 -140.5 -243s-130.167 -116.166 -211.5 -152.499s-169 -54.5 -263 -54.5c-175.333 0 -336.333 66.667 -483 200z" />
    <glyph glyph-name="afii10048" unicode="&#x42e;" horiz-adv-x="2140" 
d="M82 0l0.000976562 122.998l174 41v1106l-174 41v112l584 11v-123l-195 -41v-451h252c19.333 195.333 87.5 350 204.5 464s268.5 171 454.5 171c198.667 0 354.167 -64.167 466.5 -192.5s168.5 -303.166 168.5 -524.499c0 -148.667 -28.5 -280.5 -85.5 -395.5
s-136.667 -204 -239 -267s-219.5 -94.5 -351.5 -94.5c-192.667 0 -342.834 57.833 -450.501 173.5s-165.5 282.834 -173.5 501.501h-246v-491l195 -41v-123h-584zM952.001 716.998c0 -185.333 33.5 -325.5 100.5 -420.5s166.833 -142.5 299.5 -142.5
c136 0 241.667 48 317 144s113 239 113 429c0 183.333 -34.833 321.333 -104.5 414s-171.5 139 -305.5 139c-136 0 -240 -46.167 -312 -138.5s-108 -233.833 -108 -424.5z" />
    <glyph glyph-name="afii10049" unicode="&#x42f;" horiz-adv-x="1331" 
d="M10 0l-0.000976562 123.002l156 33l162 284c54 97.333 112.667 160.333 176 189c-33.333 8.66699 -64.666 19.667 -93.999 33s-58.833 31.5 -88.5 54.5s-55 49 -76 78s-38.167 65 -51.5 108s-20 90.167 -20 141.5c0 129.333 41.5 226.666 124.5 291.999
s198.5 98 346.5 98h604v-123l-174 -41v-1106l174 -41v-123h-563v123l174 41v430h-112c-50 0 -92.833 -16.833 -128.5 -50.5s-78.167 -98.834 -127.5 -195.501l-177 -348h-305zM388.999 1024c0 -184 119.667 -276 359 -276h112v522h-215c-79.333 0 -141.833 -21 -187.5 -63
s-68.5 -103 -68.5 -183z" />
    <glyph glyph-name="afii10065" unicode="&#x430;" horiz-adv-x="1157" 
d="M92 287c0 112.667 40.501 193.666 121.501 242.999s197.5 74 349.5 74h164v164c0 60.667 -16.833 106.5 -50.5 137.5s-81.834 46.5 -144.501 46.5c-36.667 0 -72.167 -2.5 -106.5 -7.5s-59.5 -9.83301 -75.5 -14.5l-24 -8l-29 -154h-133l-10 256
c16.667 6 39.167 13.5 67.5 22.5s77.833 21.167 148.5 36.5s131.667 23 183 23c124.667 0 219 -24.667 283 -74s96 -130.666 96 -243.999v-624l164 -41v-113l-318 -10l-43 143c-44 -44 -95 -82.167 -153 -114.5s-119 -48.5 -183 -48.5
c-97.333 0 -172.833 26.833 -226.5 80.5s-80.5 129.167 -80.5 226.5zM301.001 296.999c0 -46 13.499 -83.167 40.499 -111.5s63.5 -42.5 109.5 -42.5c28.667 0 57.834 5.66699 87.501 17s55.334 25 77.001 41s41.167 32 58.5 48s30.666 29.667 39.999 41l13 17v164h-143
c-102 0 -174.667 -13.5 -218 -40.5s-65 -71.5 -65 -133.5z" />
    <glyph glyph-name="afii10066" unicode="&#x431;" horiz-adv-x="1187" 
d="M113 655c0 137.333 8.00391 254.665 24.0039 351.998s41.333 178 76 242s76.334 114 125.001 150s108 62.667 178 80c34.667 8.66699 73.167 15.5 115.5 20.5s86.166 9.33301 131.499 13s77.666 6.83398 96.999 9.50098l82 153l143 -35l-92 -276
c-174 0 -316 -13.667 -426 -41c-86.667 -22 -151.334 -67.833 -194.001 -137.5s-71.334 -171.167 -86.001 -304.5c37.333 54.667 87.666 100.667 150.999 138s129 56 197 56c146 0 261 -48 345 -144s126 -222 126 -378c0 -169.333 -47.167 -307.166 -141.5 -413.499
s-217.833 -159.5 -370.5 -159.5c-160.667 0 -281 54.5 -361 163.5s-120 279.5 -120 511.5zM307.004 542.999c0 -58 5.5 -110.667 16.5 -158s28 -89.333 51 -126s54 -65.167 93 -85.5s84.5 -30.5 136.5 -30.5c100 0 172.833 33.667 218.5 101s68.5 167 68.5 299
c0 53.333 -5 101.5 -15 144.5s-25.5 81.667 -46.5 116s-49.667 60.833 -86 79.5s-79.5 28 -129.5 28c-102.667 0 -179.5 -31.333 -230.5 -94s-76.5 -154 -76.5 -274z" />
    <glyph glyph-name="afii10067" unicode="&#x432;" horiz-adv-x="1218" 
d="M82 0v113l174 45v770l-174 35v112l379 10h276c94 0 172.167 -24.333 234.5 -73s93.5 -113 93.5 -193c0 -73.333 -22.5 -129.333 -67.5 -168s-105.833 -61.667 -182.5 -69c82 -8.66699 151 -36.5 207 -83.5s84 -107.5 84 -181.5c0 -109.333 -39.667 -189.5 -119 -240.5
s-195.333 -76.5 -348 -76.5h-557zM461 150l188.001 0.000976562c79.333 0 139.5 12.5 180.5 37.5s61.5 64.833 61.5 119.5c0 71.333 -18.833 122.666 -56.5 153.999s-98.834 47 -183.501 47h-190v-358zM461.001 641.001h201.001c65.333 0 114.666 11 147.999 33
s50 60 50 114c0 46 -14 82.167 -42 108.5s-67.333 39.5 -118 39.5h-239v-295z" />
    <glyph glyph-name="afii10068" unicode="&#x433;" horiz-adv-x="1024" 
d="M82 0v113l174 51v758l-174 41v112l379 10h543l-11 -399h-143l-31 236h-358v-758l205 -51v-113h-584z" />
    <glyph glyph-name="afii10069" unicode="&#x434;" horiz-adv-x="1280" 
d="M25 143l77 11.001c66.667 11.333 116.667 46.5 150 105.5s57.333 153.5 72 283.5c13.333 121.333 24 247.666 32 378.999l-211 41v122h1043v-122l-174 -41v-758l205 -31l-11 -461h-143l-39 328h-809l-39 -328h-143zM358 164.001l451.001 0.000976562v758h-297
c-6.66699 -115.333 -17 -243 -31 -383c-12.667 -116.667 -27.834 -202.834 -45.501 -258.501s-43.5 -94.5 -77.5 -116.5z" />
    <glyph glyph-name="afii10070" unicode="&#x435;" horiz-adv-x="1105" 
d="M82 532c0 108.667 21 206.499 63 293.499s101.333 155.5 178 205.5s163.667 75 261 75c286.667 0 430 -160.333 430 -481c0 -15.333 -0.833008 -32 -2.5 -50s-3.5 -33 -5.5 -45l-2 -18h-707c0 -112 27.333 -201.5 82 -268.5s126.334 -100.5 215.001 -100.5
c60.667 0 119.667 9.5 177 28.5s99.666 37.833 126.999 56.5l40 28l72 -106l-22 -18.5c-9.33301 -7.66699 -29.5 -21.167 -60.5 -40.5s-62.5 -36.5 -94.5 -51.5s-71.833 -28.667 -119.5 -41s-94.5 -18.5 -140.5 -18.5c-160.667 0 -282.667 48.833 -366 146.5
s-125 232.834 -125 405.501zM305 665.999h492c0 84 -18 151.667 -54 203s-92.667 77 -170 77c-78.667 0 -141.5 -26.333 -188.5 -79s-73.5 -119.667 -79.5 -201z" />
    <glyph glyph-name="afii10072" unicode="&#x436;" horiz-adv-x="1699" 
d="M10 0v113l154 51h2l264 409l-211 365h-2l-145 25v122l450 -10v-112l-92 -29l154 -309h174v297l-103 41v112l389 10v-120l-102 -43v-297h180l154 309l-92 29v112l444 10v-122l-145 -25h-2l-211 -365l264 -409h2l154 -51v-113h-277l-293 471h-178v-307l123 -51v-113h-430
v113l123 51v307h-185l-292 -471h-271z" />
    <glyph glyph-name="afii10073" unicode="&#x437;" horiz-adv-x="944" 
d="M10 51l47 138.999c12 -4 28.5 -9 49.5 -15s59.667 -13.833 116 -23.5s107.166 -14.5 152.499 -14.5c76.667 0 136 15.5 178 46.5s63 75.5 63 133.5c0 60.667 -24.167 106.667 -72.5 138s-116.833 47 -205.5 47h-137v143h145c84 0 146.333 13.333 187 40s61 70 61 130
c0 45.333 -19.167 79.5 -57.5 102.5s-91.5 34.5 -159.5 34.5c-30 0 -61.667 -1.83301 -95 -5.5s-59 -7.16699 -77 -10.5l-27 -6l-14 -123h-123l-8 248c122.667 34 240 51 352 51c126.667 0 227.334 -23.667 302.001 -71s112 -116 112 -206
c0 -136.667 -77.333 -222 -232 -256c84 -15.333 149 -44.5 195 -87.5s69 -95.5 69 -157.5c0 -50.667 -8.33301 -96 -25 -136s-39.167 -73 -67.5 -99s-62.5 -47.667 -102.5 -65s-82 -29.666 -126 -36.999s-91.667 -11 -143 -11c-58 0 -116.667 5.83301 -176 17.5
s-104.333 23.5 -135 35.5z" />
    <glyph glyph-name="afii10074" unicode="&#x438;" horiz-adv-x="1423" 
d="M82 0v113l174 51v758l-174 41v112l502 10v-122l-133 -41v-523l522 471v52l-133 41v112l501 10v-122l-174 -41v-758l174 -51v-113h-501v113l133 51v522l-522 -471v-51l133 -51v-113h-502z" />
    <glyph glyph-name="afii10075" unicode="&#x439;" horiz-adv-x="1423" 
d="M82 0v113l174 51v758l-174 41v112l502 10v-122l-133 -41v-523l522 471v52l-133 41v112l501 10v-122l-174 -41v-758l174 -51v-113h-501v113l133 51v522l-522 -471v-51l133 -51v-113h-502zM358 1554l225.998 11v-140c36.667 -28.667 84.334 -43 143.001 -43
c57.333 0 104.333 14.333 141 43v140l226 -11c0 -88.667 -35.5 -159.834 -106.5 -213.501s-158.5 -80.5 -262.5 -80.5c-103.333 0 -190.166 26.833 -260.499 80.5s-105.833 124.834 -106.5 213.501z" />
    <glyph glyph-name="afii10076" unicode="&#x43a;" horiz-adv-x="1198" 
d="M51 0v113l174 51v758l-174 41v112l379 10v-460h174l154 309l-92 29v112l450 10v-122l-145 -25h-2l-211 -365l264 -409h2l154 -51v-113h-277l-293 471h-178v-307l133 -51v-113h-512z" />
    <glyph glyph-name="afii10077" unicode="&#x43b;" horiz-adv-x="1261" 
d="M6 -4l23.001 190.001c18 -4 37.667 -6 59 -6c68 0 120.167 27.833 156.5 83.5s61.166 148.834 74.499 279.501c14 143.333 23.667 269.666 29 378.999l-211 41v122h1043v-122l-174 -41v-758l174 -51v-113h-553v113l174 51v758h-297
c-6 -113.333 -15.667 -244.666 -29 -393.999c-8 -91.333 -19.333 -169.333 -34 -234s-34.5 -121.334 -59.5 -170.001s-56.833 -84.834 -95.5 -108.501s-85 -35.5 -139 -35.5c-39.333 0 -86.333 5.33301 -141 16z" />
    <glyph glyph-name="afii10078" unicode="&#x43c;" horiz-adv-x="1689" 
d="M82 0v113l174 51v758l-174 41v112l395 10l367 -669l366 659l398 10v-122l-174 -41v-758l174 -51v-113h-492v113l133 51v717l-59 -125l-313 -541l-115 -10l-295 516l-47 117v-674l133 -51v-113h-471z" />
    <glyph glyph-name="afii10079" unicode="&#x43d;" horiz-adv-x="1402" 
d="M82 0v113l174 51v758l-174 41v112l512 10v-122l-133 -41v-277h481v277l-133 41v112l512 10v-122l-174 -41v-758l174 -51v-113h-512v113l133 51v328h-481v-328l133 -51v-113h-512z" />
    <glyph glyph-name="afii10080" unicode="&#x43e;" horiz-adv-x="1167" 
d="M82 532c0 172.667 48.332 311.501 144.999 416.501s222.334 157.5 377.001 157.5c151.333 0 269.333 -49 354 -147s127 -230 127 -396c0 -174 -47 -314.667 -141 -422s-217.667 -161 -371 -161c-156 0 -276.833 46.667 -362.5 140s-128.5 230.666 -128.5 411.999z
M296.999 543.001c0 -266.667 95.666 -400 286.999 -400c100 0 172.667 34.167 218 102.5s68 170.833 68 307.5c0 259.333 -92 389 -276 389c-101.333 0 -176.166 -33 -224.499 -99s-72.5 -166 -72.5 -300z" />
    <glyph glyph-name="afii10081" unicode="&#x43f;" horiz-adv-x="1402" 
d="M82 0v113l174 51v758l-174 41v112l379 10h860v-122l-174 -41v-758l174 -51v-113h-512v113l133 51v758h-481v-758l133 -51v-113h-512z" />
    <glyph glyph-name="afii10082" unicode="&#x440;" 
d="M51 963v112l348 10l17 -114c96 90 199.667 135 311 135c144 0 253.333 -47.833 328 -143.5s112 -225.5 112 -389.5c0 -88 -11.167 -167.833 -33.5 -239.5s-55.833 -134 -100.5 -187s-102.5 -94 -173.5 -123s-152.833 -43.5 -245.5 -43.5c-58.667 0 -120 9.33301 -184 28
v-325l215 -41v-113h-584v113l164 41v1239zM430 184c4.66699 -3.33301 11.834 -7.16699 21.501 -11.5s33 -10.333 70 -18s78.167 -11.5 123.5 -11.5c204.667 0 307 136.667 307 410c0 118 -22.167 212.333 -66.5 283s-110.833 106 -199.5 106
c-34.667 0 -67 -4.83301 -97 -14.5s-54.333 -21.667 -73 -36s-34.834 -28.5 -48.501 -42.5s-23.5 -25.667 -29.5 -35l-8 -15v-615z" />
    <glyph glyph-name="afii10083" unicode="&#x441;" horiz-adv-x="1044" 
d="M82 543c0 166 48.165 301.333 144.498 406s225.5 157 387.5 157c54.667 0 111 -6.83301 169 -20.5s102.333 -27.5 133 -41.5l47 -20l-11 -276h-133l-31 174c-54.667 13.333 -116 20 -184 20c-99.333 0 -175.333 -31.667 -228 -95s-79 -158 -79 -284
c0 -136 28 -240 84 -312s133.667 -108 233 -108c36.667 0 72.5 4.16699 107.5 12.5s64.667 18.5 89 30.5s46 24.167 65 36.5s33.167 22.833 42.5 31.5l14 12l72 -123l-21.5 -18c-9 -7.33301 -28.167 -20.333 -57.5 -39s-59.166 -35.167 -89.499 -49.5
s-67.666 -27.333 -111.999 -39s-87.5 -17.5 -129.5 -17.5c-166.667 0 -293.667 49.667 -381 149s-131 237.333 -131 414z" />
    <glyph glyph-name="afii10084" unicode="&#x442;" horiz-adv-x="1085" 
d="M20 1085h1045l-10 -378h-144l-30 215h-236v-758l205 -51v-113h-614v113l204 51v758h-235l-31 -215h-143z" />
    <glyph glyph-name="afii10085" unicode="&#x443;" horiz-adv-x="1181" 
d="M20 963l0.000976562 112l482 10v-122l-144 -21l246 -717l225 707l-143 31v112l485 10v-122l-133 -21l-290 -811c-54 -141.333 -90.333 -232.333 -109 -273c-68 -146 -147.333 -245 -238 -297c-60.667 -35.333 -129.334 -53 -206.001 -53c-15.333 0 -34 1 -56 3l-55 5
l-21 3l19 143h102c66.667 0 125.167 28.167 175.5 84.5s100.5 139.5 150.5 249.5l-367 936z" />
    <glyph glyph-name="afii10086" unicode="&#x444;" horiz-adv-x="1466" 
d="M82 543c0 166.667 49.5 297.167 148.5 391.5s235.833 149.5 410.5 165.5v317l-174 37v113l358 10v-473c181.333 -10 319.833 -59.5 415.5 -148.5s143.5 -216.5 143.5 -382.5c0 -162.667 -49.667 -293.667 -149 -393s-236 -158 -410 -176v-315l174 -47v-113h-532v113
l174 47v313c-372.667 24 -559 204.333 -559 541zM297 553c0 -117.333 27.833 -207.667 83.5 -271s142.5 -101.333 260.5 -114v774c-118.667 -10 -205.667 -45 -261 -105s-83 -154.667 -83 -284zM825 167.999c119.333 11.333 206.5 48.5 261.5 111.5s82.5 157.5 82.5 283.5
c0 119.333 -27.333 209.833 -82 271.5s-142 97.5 -262 107.5v-774z" />
    <glyph glyph-name="afii10087" unicode="&#x445;" horiz-adv-x="1157" 
d="M10 0v113l180 47l261 383l-263 391l-157 29v112l467 10v-122l-72 -13l158 -264l245 389l297 10v-122l-174 -31l-256 -379l262 -393l189 -47v-113h-500v113l82 24l-168 271l-254 -408h-297z" />
    <glyph glyph-name="afii10088" unicode="&#x446;" horiz-adv-x="1411" 
d="M82 0v113l174 51v758l-174 41v112l512 10v-122l-133 -41v-758h481v758l-133 41v112l512 10v-122l-174 -41v-758l203 -31l-11 -461h-143l-39 328h-1075z" />
    <glyph glyph-name="afii10089" unicode="&#x447;" horiz-adv-x="1239" 
d="M-10 963l0.000976562 111.999l481 10v-122l-133 -41v-154c0 -80 14.5 -137.5 43.5 -172.5s80.833 -52.5 155.5 -52.5c39.333 0 79.166 2.5 119.499 7.5s70.833 10.167 91.5 15.5l30 7v349l-133 41v112l512 10v-122l-174 -41v-758l174 -51v-113h-584v113l205 51v256
l-54 -15c-26 -7.33301 -47.5 -13.166 -64.5 -17.499s-41 -8.5 -72 -12.5s-62.833 -6 -95.5 -6c-239.333 0 -359 122.667 -359 368v185z" />
    <glyph glyph-name="afii10090" unicode="&#x448;" horiz-adv-x="1878" 
d="M82 0v113l174 51v758l-174 41v112l491 10v-122l-122 -41v-758h391v758l-123 41v112l440 10v-122l-123 -41v-758h391v758l-122 41v112l491 10v-122l-174 -41v-758l172 -51v-113h-1712z" />
    <glyph glyph-name="afii10091" unicode="&#x449;" horiz-adv-x="1886" 
d="M82 0v113l174 51v758l-174 41v112l491 10v-122l-122 -41v-758h391v758l-123 41v112l440 10v-122l-123 -41v-758h391v758l-122 41v112l491 10v-122l-174 -41v-758l203 -31l-10 -461h-144l-39 328h-1550z" />
    <glyph glyph-name="afii10092" unicode="&#x44a;" horiz-adv-x="1239" 
d="M20 1085l809.001 -0.000976562v-122l-184 -43v-218h139c123.333 0 223.166 -29.667 299.499 -89s114.5 -145.666 114.5 -258.999c0 -236 -155.667 -354 -467 -354h-465v113l174 45v764h-235l-31 -215h-143zM645.001 153.999l96 -0.000976562
c76.667 0 136.167 15.833 178.5 47.5s63.5 75.834 63.5 132.501c0 80 -18.5 135.833 -55.5 167.5s-98.5 47.5 -184.5 47.5h-98v-395z" />
    <glyph glyph-name="afii10093" unicode="&#x44b;" horiz-adv-x="1669" 
d="M82 0l-0.000976562 113l174 45v764l-174 41v112l573 10v-122l-194 -43v-218h139c81.333 0 152.333 -12.167 213 -36.5s109.334 -63.5 146.001 -117.5s55 -120.667 55 -200c0 -116 -40.167 -203 -120.5 -261s-195.833 -87 -346.5 -87h-465zM460.999 154h95.999
c77.333 0 137 15 179 45s63 73 63 129c0 80.667 -18.667 137.667 -56 171s-98.666 50 -183.999 50h-98v-395zM1055 0v113l174 51v758l-174 41v112l532 10v-122l-153 -41v-758l153 -51v-113h-532z" />
    <glyph glyph-name="afii10094" unicode="&#x44c;" horiz-adv-x="1054" 
d="M82 0l-0.000976562 113l174 45v764l-174 41v112l563 10v-122l-184 -43v-218h139c81.333 0 152.333 -12.167 213 -36.5s109.334 -63.5 146.001 -117.5s55 -120.667 55 -200c0 -116 -40.167 -203 -120.5 -261s-195.833 -87 -346.5 -87h-465zM460.999 154h95.999
c77.333 0 137 15 179 45s63 73 63 129c0 80.667 -18.667 137.667 -56 171s-98.666 50 -183.999 50h-98v-395z" />
    <glyph glyph-name="afii10095" unicode="&#x44d;" horiz-adv-x="1067" 
d="M61 135l75.999 126.998c56.667 -38 110.334 -67.333 161.001 -88s107.667 -31 171 -31c188.667 0 289 112.667 301 338h-448l10 154h430c-14 100 -48 176.167 -102 228.5s-123 78.5 -207 78.5c-33.333 0 -64.5 -1.66699 -93.5 -5s-49.5 -6.66602 -61.5 -9.99902l-19 -5
l-31 -154h-133l-11 256l19 8.5c8 3.66699 25.167 10.334 51.5 20.001s53.166 18 80.499 25s61 13.5 101 19.5s79 9 117 9c166.667 0 293.667 -49.667 381 -149s131 -237.333 131 -414c0 -166.667 -47.667 -302.167 -143 -406.5s-223.666 -156.5 -384.999 -156.5
c-38 0 -77.667 5.33301 -119 16s-77.833 23.5 -109.5 38.5s-60.5 30.167 -86.5 45.5s-46 28.333 -60 39z" />
    <glyph glyph-name="afii10096" unicode="&#x44e;" horiz-adv-x="1755" 
d="M82 0l0.00195312 112.999l174 51v758l-174 41v112l512 10v-122l-133 -41v-287h215c19.333 144 75.666 258.5 168.999 343.5s209 127.5 347 127.5c151.333 0 269.333 -49 354 -147s127 -230 127 -396c0 -174 -47 -314.667 -141 -422s-217.667 -161 -371 -161
c-148.667 0 -265.334 42.333 -350.001 127s-131 209.334 -139 374.001h-211v-317l133 -51v-113h-512zM885.002 542.999c0 -266.667 95.332 -400 285.999 -400c100 0 172.833 34.167 218.5 102.5s68.5 170.833 68.5 307.5c0 259.333 -92 389 -276 389
c-101.333 0 -176.166 -33 -224.499 -99s-72.5 -166 -72.5 -300z" />
    <glyph glyph-name="afii10097" unicode="&#x44f;" horiz-adv-x="1214" 
d="M-10 0l0.00195312 112.999l145 49l84 129c38.667 58.667 72.167 99 100.5 121s65.833 37.667 112.5 47c-23.333 4.66699 -45.833 10.667 -67.5 18s-46.167 18.833 -73.5 34.5s-50.833 34 -70.5 55s-36.334 48.5 -50.001 82.5s-20.5 71.667 -20.5 113
c0 58 11.333 108.333 34 151s54.5 76.334 95.5 101.001s87.167 42.667 138.5 54s108.666 17 171.999 17h543v-112l-175 -37v-782l175 -41v-113h-512v113l133 41v270h-90c-68 0 -121 -14.667 -159 -44s-76 -80.333 -114 -153l-121 -227h-280zM365.002 773.999
c0 -76.667 24.333 -130.333 73 -161s119 -46 211 -46h105v369h-174c-62 0 -113.333 -13 -154 -39s-61 -67 -61 -123z" />
    <glyph glyph-name="uni0450" unicode="&#x450;" horiz-adv-x="1105" 
d="M82 532c0 108.667 21 206.499 63 293.499s101.333 155.5 178 205.5s163.667 75 261 75c286.667 0 430 -160.333 430 -481c0 -15.333 -0.833008 -32 -2.5 -50s-3.5 -33 -5.5 -45l-2 -18h-707c0 -112 27.333 -201.5 82 -268.5s126.334 -100.5 215.001 -100.5
c60.667 0 119.667 9.5 177 28.5s99.666 37.833 126.999 56.5l40 28l72 -106l-22 -18.5c-9.33301 -7.66699 -29.5 -21.167 -60.5 -40.5s-62.5 -36.5 -94.5 -51.5s-71.833 -28.667 -119.5 -41s-94.5 -18.5 -140.5 -18.5c-160.667 0 -282.667 48.833 -366 146.5
s-125 232.834 -125 405.501zM276 1485l103 153l399 -317l-71 -102zM305 665.999h492c0 84 -18 151.667 -54 203s-92.667 77 -170 77c-78.667 0 -141.5 -26.333 -188.5 -79s-73.5 -119.667 -79.5 -201z" />
    <glyph glyph-name="afii10071" unicode="&#x451;" horiz-adv-x="1105" 
d="M82 532c0 108.667 21 206.499 63 293.499s101.333 155.5 178 205.5s163.667 75 261 75c286.667 0 430 -160.333 430 -481c0 -15.333 -0.833008 -32 -2.5 -50s-3.5 -33 -5.5 -45l-2 -18h-707c0 -112 27.333 -201.5 82 -268.5s126.334 -100.5 215.001 -100.5
c60.667 0 119.667 9.5 177 28.5s99.666 37.833 126.999 56.5l40 28l72 -106l-22 -18.5c-9.33301 -7.66699 -29.5 -21.167 -60.5 -40.5s-62.5 -36.5 -94.5 -51.5s-71.833 -28.667 -119.5 -41s-94.5 -18.5 -140.5 -18.5c-160.667 0 -282.667 48.833 -366 146.5
s-125 232.834 -125 405.501zM205 1434c0 38 10.667 67.832 32 89.499s48 32.5 80 32.5c35.333 0 63 -10.667 83 -32s30 -51.333 30 -90c0 -38 -10.833 -68 -32.5 -90s-48.5 -33 -80.5 -33c-35.333 0 -62.833 10.833 -82.5 32.5s-29.5 51.834 -29.5 90.501zM305 665.998h492
c0 84 -18 151.667 -54 203s-92.667 77 -170 77c-78.667 0 -141.5 -26.333 -188.5 -79s-73.5 -119.667 -79.5 -201zM625 1434c0 38 10.667 67.832 32 89.499s48 32.5 80 32.5c35.333 0 63 -10.667 83 -32s30 -51.333 30 -90c0 -38 -10.833 -68 -32.5 -90s-48.5 -33 -80.5 -33
c-35.333 0 -62.833 10.833 -82.5 32.5s-29.5 51.834 -29.5 90.501z" />
    <glyph glyph-name="afii10099" unicode="&#x452;" horiz-adv-x="1228" 
d="M51 0l0.00585938 113l174 51v1003h-174v123h174v123l-174 41v113l379 10v-287h379v-123h-379v-260c43.333 36.667 97 70.5 161 101.5s129.667 46.5 197 46.5c114 0 197.167 -39.833 249.5 -119.5s78.5 -210.5 78.5 -392.5c0 -131.333 -1.83301 -244.333 -5.5 -339
s-10.5 -181.334 -20.5 -260.001s-22.833 -143 -38.5 -193s-35.834 -92.333 -60.501 -127s-53.5 -59.167 -86.5 -73.5s-71.833 -21.5 -116.5 -21.5c-58.667 0 -116.667 7.33301 -174 22l15 146c50.667 -5.33301 95.667 -8 135 -8c69.333 0 111.166 49.833 125.499 149.5
s21.5 327.5 21.5 683.5c0 96.667 -5.83301 170.667 -17.5 222s-29.834 87 -54.501 107s-60 30 -106 30c-32.667 0 -65.334 -5.33301 -98.001 -16s-60.834 -23.667 -84.501 -39s-44.834 -30.666 -63.501 -45.999s-33 -28.333 -43 -39l-14 -16v-561l133 -51v-113h-512z" />
    <glyph glyph-name="afii10100" unicode="&#x453;" horiz-adv-x="1024" 
d="M82 0v113l174 51v758l-174 41v112l379 10h543l-11 -399h-143l-31 236h-358v-758l205 -51v-113h-584zM317 1321l400 317l102 -153l-430 -266z" />
    <glyph glyph-name="afii10101" unicode="&#x454;" horiz-adv-x="1064" 
d="M82 543c0 166 48.165 301.333 144.498 406s225.5 157 387.5 157c54.667 0 111 -6.83301 169 -20.5s102.333 -27.5 133 -41.5l47 -20l-11 -256h-133l-31 154c-54.667 13.333 -116 20 -184 20c-89.333 0 -160 -25.667 -212 -77s-82.333 -128 -91 -230h440l-6 -154h-434
c11.333 -110 44.333 -193.833 99 -251.5s126 -86.5 214 -86.5c36.667 0 72.5 4.16699 107.5 12.5s64.667 18.5 89 30.5s46 24.167 65 36.5s33.167 22.833 42.5 31.5l14 12l72 -123l-21.5 -18c-9 -7.33301 -28.167 -20.333 -57.5 -39s-59.166 -35.167 -89.499 -49.5
s-67.666 -27.333 -111.999 -39s-87.5 -17.5 -129.5 -17.5c-166.667 0 -293.667 49.667 -381 149s-131 237.333 -131 414z" />
    <glyph glyph-name="afii10102" unicode="&#x455;" horiz-adv-x="960" 
d="M92 786c0 102.667 35.002 181.665 105.002 236.998s160 83 270 83c48 0 101.167 -5.16699 159.5 -15.5s104.833 -20.5 139.5 -30.5l51 -16l-6 -276h-133l-33 160c-42.667 16 -98 24 -166 24c-121.333 0 -182 -45.667 -182 -137c0 -29.333 10.5 -55 31.5 -77
s48.333 -40 82 -54s70.667 -27.667 111 -41s80.833 -28.166 121.5 -44.499s77.834 -35.333 111.501 -57s61 -50.5 82 -86.5s31.5 -77.667 31.5 -125c0 -76 -20.667 -140.833 -62 -194.5s-95.333 -93 -162 -118s-142 -37.5 -226 -37.5c-56 0 -111 3.66699 -165 11
s-94 15 -120 23l-39 11v303h144l22 -176c40.667 -12.667 98 -19 172 -19c154.667 0 232 54 232 162c0 29.333 -10.5 54.833 -31.5 76.5s-48.333 39.167 -82 52.5s-70.834 26.333 -111.501 39s-81.334 27.167 -122.001 43.5s-77.834 35.5 -111.501 57.5s-61 51.833 -82 89.5
s-31.5 81.834 -31.5 132.501z" />
    <glyph glyph-name="afii10103" unicode="&#x456;" horiz-adv-x="686" 
d="M82 0v113l174 51v758l-174 41v112l379 10v-921l153 -51v-113h-532zM215 1423c0 44.667 12.833 79.833 38.5 105.5s57.167 38.5 94.5 38.5c88.667 0 133 -48 133 -144c0 -43.333 -13.833 -78 -41.5 -104s-58.167 -39 -91.5 -39c-41.333 0 -73.833 12.5 -97.5 37.5
s-35.5 60.167 -35.5 105.5z" />
    <glyph glyph-name="afii10104" unicode="&#x457;" horiz-adv-x="686" 
d="M31 1434c0 38 10.667 67.832 32 89.499s48 32.5 80 32.5c35.333 0 63 -10.667 83 -32s30 -51.333 30 -90c0 -38 -10.833 -68 -32.5 -90s-48.5 -33 -80.5 -33c-35.333 0 -62.833 10.833 -82.5 32.5s-29.5 51.834 -29.5 90.501zM82 -0.000976562v113l174 51v758l-174 41
v112l379 10v-921l153 -51v-113h-532zM430 1434c0 37.333 10.833 66.999 32.5 88.999s48.5 33 80.5 33c35.333 0 62.833 -10.667 82.5 -32s29.5 -51.333 29.5 -90c0 -38 -10.667 -68 -32 -90s-48 -33 -80 -33c-35.333 0 -63 10.833 -83 32.5s-30 51.834 -30 90.501z" />
    <glyph glyph-name="afii10105" unicode="&#x458;" horiz-adv-x="591" 
d="M-82 -481l19 143h102c67.333 0 114.833 17.5 142.5 52.5s41.5 85.833 41.5 152.5v1055l-174 41v112l379 10v-1177c0 -124.667 -32.833 -222.5 -98.5 -293.5s-159.167 -106.5 -280.5 -106.5c-15.333 0 -33.833 1 -55.5 3l-53.5 5zM172 1423
c0 44.667 12.833 79.833 38.5 105.5s57.167 38.5 94.5 38.5c88.667 0 133 -48 133 -144c0 -43.333 -13.833 -78 -41.5 -104s-58.167 -39 -91.5 -39c-41.333 0 -73.833 12.5 -97.5 37.5s-35.5 60.167 -35.5 105.5z" />
    <glyph glyph-name="afii10106" unicode="&#x459;" horiz-adv-x="1660" 
d="M6 -4l23 190.001c20 -4 39.667 -6 59 -6c68 0 120.167 27.833 156.5 83.5s61.166 148.834 74.499 279.501c14 143.333 23.667 269.666 29 378.999l-211 41v122h1073v-122l-184 -43v-218h180c81.333 0 152.333 -12.167 213 -36.5s109.334 -63.5 146.001 -117.5
s55 -120.667 55 -200c0 -116 -40.167 -203 -120.5 -261s-195.833 -87 -346.5 -87h-506v113l174 45v764h-317c-6 -113.333 -15.667 -244.666 -29 -393.999c-8 -91.333 -19.333 -169.333 -34 -234s-34.5 -121.334 -59.5 -170.001s-56.833 -84.834 -95.5 -108.501
s-85 -35.5 -139 -35.5c-39.333 0 -86.333 5.33301 -141 16zM1026 154.001h136.999c77.333 0 137 15 179 45s63 73 63 129c0 80.667 -18.667 137.667 -56 171s-98.666 50 -183.999 50h-139v-395z" />
    <glyph glyph-name="afii10107" unicode="&#x45a;" horiz-adv-x="1781" 
d="M82 0v113l174 51v758l-174 41v112l512 10v-122l-133 -41v-246h481v246l-133 41v112l512 10v-122l-174 -41v-246h180c80 0 150.667 -11.833 212 -35.5s110.333 -60.667 147 -111s55 -110.833 55 -181.5c0 -116 -40.167 -203 -120.5 -261s-195.833 -87 -346.5 -87h-506v113
l174 45v364h-481v-358l133 -51v-113h-512zM1147 154h137c77.333 0 137 15 179 45s63 73 63 129c0 68.667 -19 118.167 -57 148.5s-99 45.5 -183 45.5h-139v-368z" />
    <glyph glyph-name="afii10108" unicode="&#x45b;" horiz-adv-x="1331" 
d="M51 0l0.00292969 113l174 51v1003h-174v123h174v123l-174 41v113l379 10v-287h379v-123h-379v-260c43.333 36.667 97 70.5 161 101.5s129.667 46.5 197 46.5c109.333 0 191.333 -32.5 246 -97.5s82 -155.5 82 -271.5v-522l154 -51v-113h-492v113l133 49v504
c0 74 -13.5 128.333 -40.5 163s-72.833 52 -137.5 52c-32.667 0 -65.334 -5.66699 -98.001 -17s-60.834 -25 -84.501 -41s-44.834 -32 -63.501 -48s-33 -29.667 -43 -41l-14 -17v-553l133 -51v-113h-512z" />
    <glyph glyph-name="afii10109" unicode="&#x45c;" horiz-adv-x="1198" 
d="M51 0v113l174 51v758l-174 41v112l379 10v-460h174l154 309l-92 29v112l450 10v-122l-145 -25h-2l-211 -365l264 -409h2l154 -51v-113h-277l-293 471h-178v-307l133 -51v-113h-512zM389 1321l399 317l103 -153l-430 -266z" />
    <glyph glyph-name="uni045D" unicode="&#x45d;" horiz-adv-x="1423" 
d="M82 0v113l174 51v758l-174 41v112l502 10v-122l-133 -41v-523l522 471v52l-133 41v112l501 10v-122l-174 -41v-758l174 -51v-113h-501v113l133 51v522l-522 -471v-51l133 -51v-113h-502zM369 1485l102 153l399 -317l-71 -102z" />
    <glyph glyph-name="afii10110" unicode="&#x45e;" horiz-adv-x="1181" 
d="M20 963l0.000976562 112l482 10v-122l-144 -21l246 -717l225 707l-143 31v112l485 10v-122l-133 -21l-290 -811c-54 -141.333 -90.333 -232.333 -109 -273c-68 -146 -147.333 -245 -238 -297c-60.667 -35.333 -129.334 -53 -206.001 -53c-15.333 0 -34 1 -56 3l-55 5
l-21 3l19 143h102c66.667 0 125.167 28.167 175.5 84.5s100.5 139.5 150.5 249.5l-367 936zM225.001 1554l225.998 11v-140c36.667 -28.667 84.334 -43 143.001 -43c57.333 0 104.333 14.333 141 43v140l226 -11c0 -88.667 -35.5 -159.834 -106.5 -213.501
s-158.5 -80.5 -262.5 -80.5c-103.333 0 -190.166 26.833 -260.499 80.5s-105.833 124.834 -106.5 213.501z" />
    <glyph glyph-name="afii10193" unicode="&#x45f;" horiz-adv-x="1402" 
d="M82 0v113l174 51v758l-174 41v112l512 10v-122l-133 -41v-758h481v758l-133 41v112l512 10v-122l-174 -41v-758l174 -51v-113h-512l-31 -328h-133l-39 328h-524z" />
    <glyph glyph-name="afii10050" unicode="&#x490;" horiz-adv-x="1093" 
d="M82 0v123l174 41v1106l-174 41v112l389 11h387l103 358h122l-8 -358l-4 -164h-600v-1106l236 -41v-123h-625z" />
    <glyph glyph-name="afii10098" unicode="&#x491;" horiz-adv-x="1013" 
d="M82 0v113l174 51v758l-174 41v112l379 10h348l41 277h143v-440h-532v-758l205 -51v-113h-584z" />
    <glyph glyph-name="uni04B0" unicode="&#x4b0;" horiz-adv-x="1320" 
d="M20 1311v112l512 11v-123l-139 -41l273 -574l301 574l-158 41v112l491 11v-123l-126 -37l-402 -731h293v-154h-297v-225l174 -41v-123h-563v123l174 41v225h-297v154h291l-389 729z" />
    <glyph glyph-name="uni04B1" unicode="&#x4b1;" horiz-adv-x="1144" 
d="M10 963v112l461 10v-122l-143 -21l243 -743l246 733l-141 31v112l459 10v-122l-113 -21l-309 -799h215v-143h-264v-307l174 -51v-113h-553v113l174 51v307h-266v143h217l-297 789z" />
    <glyph glyph-name="uni2000" unicode="&#x2000;" horiz-adv-x="957" 
 />
    <glyph glyph-name="uni2001" unicode="&#x2001;" horiz-adv-x="1915" 
 />
    <glyph glyph-name="uni2002" unicode="&#x2002;" horiz-adv-x="957" 
 />
    <glyph glyph-name="uni2003" unicode="&#x2003;" horiz-adv-x="1915" 
 />
    <glyph glyph-name="uni2004" unicode="&#x2004;" horiz-adv-x="638" 
 />
    <glyph glyph-name="uni2005" unicode="&#x2005;" horiz-adv-x="478" 
 />
    <glyph glyph-name="uni2006" unicode="&#x2006;" horiz-adv-x="319" 
 />
    <glyph glyph-name="uni2007" unicode="&#x2007;" horiz-adv-x="319" 
 />
    <glyph glyph-name="uni2008" unicode="&#x2008;" horiz-adv-x="239" 
 />
    <glyph glyph-name="uni2009" unicode="&#x2009;" horiz-adv-x="383" 
 />
    <glyph glyph-name="uni200A" unicode="&#x200a;" horiz-adv-x="106" 
 />
    <glyph glyph-name="uni2010" unicode="&#x2010;" horiz-adv-x="768" 
d="M123 471v174h532v-174h-532z" />
    <glyph glyph-name="uni2011" unicode="&#x2011;" horiz-adv-x="768" 
d="M123 471v174h532v-174h-532z" />
    <glyph glyph-name="figuredash" unicode="&#x2012;" horiz-adv-x="768" 
d="M123 471v174h532v-174h-532z" />
    <glyph glyph-name="endash" unicode="&#x2013;" horiz-adv-x="1024" 
d="M0 584v164h1024v-164h-1024z" />
    <glyph glyph-name="emdash" unicode="&#x2014;" horiz-adv-x="1986" 
d="M0 584v164h1987v-164h-1987z" />
    <glyph glyph-name="quoteleft" unicode="&#x2018;" horiz-adv-x="573" 
d="M133 1167c0 56.667 21.167 122.832 63.5 198.499s99.833 152.834 172.5 231.501l92 -77l-30 -42c-12 -17.333 -28.167 -45.333 -48.5 -84s-30.5 -69 -30.5 -91c0 -11.333 7.83301 -32.5 23.5 -63.5s23.5 -59.833 23.5 -86.5c0 -39.333 -12.333 -72 -37 -98
s-56.667 -39 -96 -39c-88.667 0 -133 50.333 -133 151z" />
    <glyph glyph-name="quoteright" unicode="&#x2019;" horiz-adv-x="573" 
d="M113 1094l30 41.999c12 17.333 28 45.333 48 84s30 69 30 91c0 11.333 -7.83301 32.333 -23.5 63s-23.5 59.334 -23.5 86.001c0 39.333 12.333 72 37 98s56.667 39 96 39c88.667 0 133 -50.333 133 -151c0 -56.667 -21 -123 -63 -199s-99.333 -153 -172 -231z" />
    <glyph glyph-name="quotesinglbase" unicode="&#x201a;" horiz-adv-x="573" 
d="M113 -279l30 41.999c12 17.333 28 45.5 48 84.5s30 69.5 30 91.5c0 11.333 -7.83301 32.333 -23.5 63s-23.5 59.334 -23.5 86.001c0 39.333 12.333 72 37 98s56.667 39 96 39c88.667 0 133 -50.333 133 -151c0 -56.667 -21 -123 -63 -199s-99.333 -153 -172 -231z" />
    <glyph glyph-name="quotedblleft" unicode="&#x201c;" horiz-adv-x="972" 
d="M133 1167c0 56.667 21.167 122.832 63.5 198.499s99.833 152.834 172.5 231.501l92 -77l-30 -42c-12 -17.333 -28.167 -45.333 -48.5 -84s-30.5 -69 -30.5 -91c0 -11.333 7.83301 -32.5 23.5 -63.5s23.5 -59.833 23.5 -86.5c0 -39.333 -12.333 -72 -37 -98
s-56.667 -39 -96 -39c-88.667 0 -133 50.333 -133 151zM532 1167c0 56.667 21.167 122.832 63.5 198.499s99.833 152.834 172.5 231.501l92 -77l-30 -42c-12 -17.333 -28 -45.333 -48 -84s-30 -69 -30 -91c0 -11.333 7.83301 -32.5 23.5 -63.5s23.5 -59.833 23.5 -86.5
c0 -39.333 -12.333 -72 -37 -98s-56.667 -39 -96 -39c-40 0 -72.333 11.833 -97 35.5s-37 62.167 -37 115.5z" />
    <glyph glyph-name="quotedblright" unicode="&#x201d;" horiz-adv-x="972" 
d="M113 1094l30 41.999c12 17.333 28 45.333 48 84s30 69 30 91c0 11.333 -7.83301 32.333 -23.5 63s-23.5 59.334 -23.5 86.001c0 39.333 12.333 72 37 98s56.667 39 96 39c88.667 0 133 -50.333 133 -151c0 -56.667 -21 -123 -63 -199s-99.333 -153 -172 -231zM512 1094
l30 42.001c12 17.333 28.167 45.333 48.5 84s30.5 69 30.5 91c0 11.333 -8 32.333 -24 63s-24 59.334 -24 86.001c0 39.333 12.5 72 37.5 98s57.167 39 96.5 39c88.667 0 133 -50.333 133 -151c0 -56.667 -21.167 -122.834 -63.5 -198.501s-99.833 -152.834 -172.5 -231.501
z" />
    <glyph glyph-name="quotedblbase" unicode="&#x201e;" horiz-adv-x="972" 
d="M113 -279l30 41.999c12 17.333 28 45.5 48 84.5s30 69.5 30 91.5c0 11.333 -7.83301 32.333 -23.5 63s-23.5 59.334 -23.5 86.001c0 39.333 12.333 72 37 98s56.667 39 96 39c88.667 0 133 -50.333 133 -151c0 -56.667 -21 -123 -63 -199s-99.333 -153 -172 -231z
M512 -279.001l30 42.001c12 17.333 28.167 45.5 48.5 84.5s30.5 69.5 30.5 91.5c0 11.333 -8 32.333 -24 63s-24 59.334 -24 86.001c0 39.333 12.5 72 37.5 98s57.167 39 96.5 39c88.667 0 133 -50.333 133 -151c0 -56.667 -21.167 -122.834 -63.5 -198.501
s-99.833 -152.834 -172.5 -231.501z" />
    <glyph glyph-name="bullet" unicode="&#x2022;" horiz-adv-x="1034" 
d="M174 645c0 90 32.167 167.167 96.5 231.5s141.5 96.5 231.5 96.5s167 -32.167 231 -96.5s96 -141.5 96 -231.5s-32 -167.167 -96 -231.5s-141 -96.5 -231 -96.5s-167.167 32.167 -231.5 96.5s-96.5 141.5 -96.5 231.5z" />
    <glyph glyph-name="ellipsis" unicode="&#x2026;" horiz-adv-x="1474" 
d="M113 123c0 44.667 12.833 79.667 38.5 105s57.167 38 94.5 38c41.333 0 73.833 -12.5 97.5 -37.5s35.5 -60.167 35.5 -105.5c0 -44.667 -12.833 -79.667 -38.5 -105s-57.167 -38 -94.5 -38c-41.333 0 -73.833 12.5 -97.5 37.5s-35.5 60.167 -35.5 105.5zM604 123
c0 44.667 12.667 79.667 38 105s57 38 95 38c41.333 0 73.833 -12.5 97.5 -37.5s35.5 -60.167 35.5 -105.5c0 -44.667 -12.667 -79.667 -38 -105s-57 -38 -95 -38c-41.333 0 -73.833 12.5 -97.5 37.5s-35.5 60.167 -35.5 105.5zM1096 123c0 44.667 12.667 79.667 38 105
s57 38 95 38c41.333 0 73.833 -12.5 97.5 -37.5s35.5 -60.167 35.5 -105.5c0 -44.667 -12.667 -79.667 -38 -105s-57 -38 -95 -38c-41.333 0 -73.833 12.5 -97.5 37.5s-35.5 60.167 -35.5 105.5z" />
    <glyph glyph-name="uni202F" unicode="&#x202f;" horiz-adv-x="383" 
 />
    <glyph glyph-name="guilsinglleft" unicode="&#x2039;" horiz-adv-x="645" 
d="M113 481v123l297 328l122 -82l-235 -307l235 -307l-122 -82z" />
    <glyph glyph-name="guilsinglright" unicode="&#x203a;" horiz-adv-x="645" 
d="M123 236l235 307l-235 307l123 82l297 -328v-123l-297 -327z" />
    <glyph glyph-name="uni205F" unicode="&#x205f;" horiz-adv-x="478" 
 />
    <glyph glyph-name="Euro" unicode="&#x20ac;" horiz-adv-x="1286" 
d="M31 492l152.999 0.00292969c1.33301 -16 3.5 -33.333 6.5 -52s9.66699 -45.5 20 -80.5s23 -68.167 38 -99.5s36.667 -64.833 65 -100.5s60.5 -66.167 96.5 -91.5s81.333 -46.333 136 -63s115 -25 181 -25c55.333 0 109.666 6.66699 162.999 20s98 29.5 134 48.5
s68.167 38 96.5 57s49.5 35.167 63.5 48.5l20 20l-82 123c-4 -4 -10 -9 -18 -15s-25.167 -17 -51.5 -33s-53.166 -30.167 -80.499 -42.5s-61.5 -23.5 -102.5 -33.5s-81.5 -15 -121.5 -15c-52 0 -98.667 10.167 -140 30.5s-73.166 43.666 -95.499 69.999
s-41.5 57.166 -57.5 92.499s-26.5 63.166 -31.5 83.499s-8.83301 39.5 -11.5 57.5h499v143h-880v-143zM30.999 778.003l-0.00195312 144.003h145c5.33301 30 12 59.667 20 89s19.667 62.166 35 98.499s32.833 70 52.5 101s44.834 62 75.501 93s64.334 57.167 101.001 78.5
s80.667 38.666 132 51.999s106.666 20 165.999 20c66.667 0 133 -6.83301 199 -20.5s115 -27.5 147 -41.5l49 -20l-10 -285h-133l-27 164c-68 26 -153.333 39 -256 39c-43.333 0 -82.666 -8.33301 -117.999 -25s-64 -37.334 -86 -62.001s-41.333 -54.5 -58 -89.5
s-29 -67.333 -37 -97s-14.667 -61.167 -20 -94.5h503v-144h-880z" />
    <glyph glyph-name="trademark" unicode="&#x2122;" horiz-adv-x="1949" 
d="M82 1178v256h706v-256h-98l-24 139h-152v-543l133 -26v-93h-424v93l133 26v543h-151l-25 -139h-98zM872 655v93l107 26v543l-107 20v90l285 7l197 -392l202 385l271 7v-93l-103 -24v-543l103 -26v-93h-359v93l117 26v445l-190 -342l-105 -13l-182 344v-434l127 -26v-93
h-363z" />
    <glyph glyph-name="uni25FC" unicode="&#x25fc;" horiz-adv-x="1085" 
d="M0 0v1085h1085v-1085h-1085z" />
    <glyph glyph-name="glyph2" horiz-adv-x="682" 
 />
    </font>
</defs>
</svg>
